<?xml version="1.0" encoding="UTF-8" standalone="no"?>
<svg
   xmlns:dc="http://purl.org/dc/elements/1.1/"
   xmlns:cc="http://creativecommons.org/ns#"
   xmlns:rdf="http://www.w3.org/1999/02/22-rdf-syntax-ns#"
   xmlns:svg="http://www.w3.org/2000/svg"
   xmlns="http://www.w3.org/2000/svg"
   viewBox="0 0 591.69598 591.69598"
   height="591.69598"
   width="591.69598"
   xml:space="preserve"
   id="svg2"
   version="1.1"><metadata
     id="metadata8"><rdf:RDF><cc:Work
         rdf:about=""><dc:format>image/svg+xml</dc:format><dc:type
           rdf:resource="http://purl.org/dc/dcmitype/StillImage" /></cc:Work></rdf:RDF></metadata><defs
     id="defs6" /><g
     transform="matrix(1.3333333,0,0,-1.3333333,48.666665,48.66668)"
     id="g10"><g
       id="g12"><g
         id="g14" /><g
         id="g16"><g
           id="g18"><g
             id="g20"><path
               id="path22"
               style="fill:#008080;fill-opacity:1;fill-rule:nonzero;stroke:#008080;stroke-width:1.13384998;stroke-linecap:butt;stroke-linejoin:miter;stroke-miterlimit:10;stroke-dasharray:none;stroke-opacity:1"
               d="m 31.4484,35.4335 h -62.8968 c -2.20094,0 -3.9851,-1.78416 -3.9851,-3.9851 v -62.8968 c 0,-2.20094 1.78416,-3.9851 3.9851,-3.9851 h 62.8968 c 2.20094,0 3.9851,1.78416 3.9851,3.9851 v 62.8968 c 0,2.20094 -1.78416,3.9851 -3.9851,3.9851 z" /></g><g
             transform="translate(-29.577,-17.089)"
             id="g24"><g
               id="g26"><g
                 transform="translate(-6.923,-390.183)"
                 id="g28"><text
                   id="text32"
                   style="font-variant:normal;font-weight:normal;font-size:49.8132019px;font-family:CMBX12;-inkscape-font-specification:CMBX12;writing-mode:lr-tb;fill:#ffffff;fill-opacity:1;fill-rule:nonzero;stroke:none"
                   transform="matrix(1,0,0,-1,6.923,390.183)"><tspan
                     id="tspan30"
                     y="0"
                     x="0 31.133249">S1</tspan></text>
<g
                   transform="translate(6.923,390.183)"
                   id="g34" /></g></g><g
               transform="translate(29.577,17.089)"
               id="g36" /></g></g><g
           id="g38"><g
             id="g40"><path
               id="path42"
               style="fill:#008080;fill-opacity:1;fill-rule:nonzero;stroke:#008080;stroke-width:1.13384998;stroke-linecap:butt;stroke-linejoin:miter;stroke-miterlimit:10;stroke-dasharray:none;stroke-opacity:1"
               d="m 216.83658,35.4335 h -62.89682 c -2.20094,0 -3.98511,-1.78416 -3.98511,-3.9851 v -62.8968 c 0,-2.20094 1.78417,-3.9851 3.98511,-3.9851 h 62.89682 c 2.20094,0 3.98511,1.78416 3.98511,3.9851 v 62.8968 c 0,2.20094 -1.78417,3.9851 -3.98511,3.9851 z" /></g><g
             transform="translate(155.809,-17.089)"
             id="g44"><g
               id="g46"><g
                 transform="translate(-192.309,-390.183)"
                 id="g48"><text
                   id="text52"
                   style="font-variant:normal;font-weight:normal;font-size:49.8132019px;font-family:CMBX12;-inkscape-font-specification:CMBX12;writing-mode:lr-tb;fill:#ffffff;fill-opacity:1;fill-rule:nonzero;stroke:none"
                   transform="matrix(1,0,0,-1,192.309,390.183)"><tspan
                     id="tspan50"
                     y="0"
                     x="0 31.133249">S2</tspan></text>
<g
                   transform="translate(192.309,390.183)"
                   id="g54" /></g></g><g
               transform="translate(-155.809,17.089)"
               id="g56" /></g></g><g
           id="g58"><g
             id="g60"><path
               id="path62"
               style="fill:#008080;fill-opacity:1;fill-rule:nonzero;stroke:#008080;stroke-width:1.13384998;stroke-linecap:butt;stroke-linejoin:miter;stroke-miterlimit:10;stroke-dasharray:none;stroke-opacity:1"
               d="m 402.22475,35.4335 h -62.89682 c -2.20095,0 -3.98511,-1.78416 -3.98511,-3.9851 v -62.8968 c 0,-2.20094 1.78416,-3.9851 3.98511,-3.9851 h 62.89682 c 2.20094,0 3.9851,1.78416 3.9851,3.9851 v 62.8968 c 0,2.20094 -1.78416,3.9851 -3.9851,3.9851 z" /></g><g
             transform="translate(341.195,-17.089)"
             id="g64"><g
               id="g66"><g
                 transform="translate(-377.695,-390.183)"
                 id="g68"><text
                   id="text72"
                   style="font-variant:normal;font-weight:normal;font-size:49.8132019px;font-family:CMBX12;-inkscape-font-specification:CMBX12;writing-mode:lr-tb;fill:#ffffff;fill-opacity:1;fill-rule:nonzero;stroke:none"
                   transform="matrix(1,0,0,-1,377.695,390.183)"><tspan
                     id="tspan70"
                     y="0"
                     x="0 31.133249">S3</tspan></text>
<g
                   transform="translate(377.695,390.183)"
                   id="g74" /></g></g><g
               transform="translate(-341.195,17.089)"
               id="g76" /></g></g><g
           id="g78"><g
             id="g80"><path
               id="path82"
               style="fill:#008080;fill-opacity:1;fill-rule:nonzero;stroke:#008080;stroke-width:1.13384998;stroke-linecap:butt;stroke-linejoin:miter;stroke-miterlimit:10;stroke-dasharray:none;stroke-opacity:1"
               d="m 31.4484,-149.95465 h -62.8968 c -2.20094,0 -3.9851,-1.78417 -3.9851,-3.98511 v -62.89682 c 0,-2.20094 1.78416,-3.98511 3.9851,-3.98511 h 62.8968 c 2.20094,0 3.9851,1.78417 3.9851,3.98511 v 62.89682 c 0,2.20094 -1.78416,3.98511 -3.9851,3.98511 z" /></g><g
             transform="translate(-29.577,-202.475)"
             id="g84"><g
               id="g86"><g
                 transform="translate(-6.923,-204.797)"
                 id="g88"><text
                   id="text92"
                   style="font-variant:normal;font-weight:normal;font-size:49.8132019px;font-family:CMBX12;-inkscape-font-specification:CMBX12;writing-mode:lr-tb;fill:#ffffff;fill-opacity:1;fill-rule:nonzero;stroke:none"
                   transform="matrix(1,0,0,-1,6.923,204.797)"><tspan
                     id="tspan90"
                     y="0"
                     x="0 31.133249">S4</tspan></text>
<g
                   transform="translate(6.923,204.797)"
                   id="g94" /></g></g><g
               transform="translate(29.577,202.475)"
               id="g96" /></g></g><g
           id="g98"><g
             id="g100"><path
               id="path102"
               style="fill:#008080;fill-opacity:1;fill-rule:nonzero;stroke:#008080;stroke-width:1.13384998;stroke-linecap:butt;stroke-linejoin:miter;stroke-miterlimit:10;stroke-dasharray:none;stroke-opacity:1"
               d="m 216.83658,-149.95465 h -62.89682 c -2.20094,0 -3.98511,-1.78417 -3.98511,-3.98511 v -62.89682 c 0,-2.20094 1.78417,-3.98511 3.98511,-3.98511 h 62.89682 c 2.20094,0 3.98511,1.78417 3.98511,3.98511 v 62.89682 c 0,2.20094 -1.78417,3.98511 -3.98511,3.98511 z" /></g><g
             transform="translate(155.809,-202.475)"
             id="g104"><g
               id="g106"><g
                 transform="translate(-192.309,-204.797)"
                 id="g108"><text
                   id="text112"
                   style="font-variant:normal;font-weight:normal;font-size:49.8132019px;font-family:CMBX12;-inkscape-font-specification:CMBX12;writing-mode:lr-tb;fill:#ffffff;fill-opacity:1;fill-rule:nonzero;stroke:none"
                   transform="matrix(1,0,0,-1,192.309,204.797)"><tspan
                     id="tspan110"
                     y="0"
                     x="0 31.133249">S5</tspan></text>
<g
                   transform="translate(192.309,204.797)"
                   id="g114" /></g></g><g
               transform="translate(-155.809,202.475)"
               id="g116" /></g></g><g
           id="g118"><g
             id="g120"><path
               id="path122"
               style="fill:#008080;fill-opacity:1;fill-rule:nonzero;stroke:#008080;stroke-width:1.13384998;stroke-linecap:butt;stroke-linejoin:miter;stroke-miterlimit:10;stroke-dasharray:none;stroke-opacity:1"
               d="m 402.22475,-149.95465 h -62.89682 c -2.20095,0 -3.98511,-1.78417 -3.98511,-3.98511 v -62.89682 c 0,-2.20094 1.78416,-3.98511 3.98511,-3.98511 h 62.89682 c 2.20094,0 3.9851,1.78417 3.9851,3.98511 v 62.89682 c 0,2.20094 -1.78416,3.98511 -3.9851,3.98511 z" /></g><g
             transform="translate(341.195,-202.475)"
             id="g124"><g
               id="g126"><g
                 transform="translate(-377.695,-204.797)"
                 id="g128"><text
                   id="text132"
                   style="font-variant:normal;font-weight:normal;font-size:49.8132019px;font-family:CMBX12;-inkscape-font-specification:CMBX12;writing-mode:lr-tb;fill:#ffffff;fill-opacity:1;fill-rule:nonzero;stroke:none"
                   transform="matrix(1,0,0,-1,377.695,204.797)"><tspan
                     id="tspan130"
                     y="0"
                     x="0 31.133249">S6</tspan></text>
<g
                   transform="translate(377.695,204.797)"
                   id="g134" /></g></g><g
               transform="translate(-341.195,202.475)"
               id="g136" /></g></g><g
           id="g138"><g
             id="g140"><path
               id="path142"
               style="fill:#008080;fill-opacity:1;fill-rule:nonzero;stroke:#008080;stroke-width:1.13384998;stroke-linecap:butt;stroke-linejoin:miter;stroke-miterlimit:10;stroke-dasharray:none;stroke-opacity:1"
               d="m 31.4484,-335.34282 h -62.8968 c -2.20094,0 -3.9851,-1.78416 -3.9851,-3.98511 v -62.89682 c 0,-2.20094 1.78416,-3.9851 3.9851,-3.9851 h 62.8968 c 2.20094,0 3.9851,1.78416 3.9851,3.9851 v 62.89682 c 0,2.20095 -1.78416,3.98511 -3.9851,3.98511 z" /></g><g
             transform="translate(-29.577,-387.861)"
             id="g144"><g
               id="g146"><g
                 transform="translate(-6.923,-19.411)"
                 id="g148"><text
                   id="text152"
                   style="font-variant:normal;font-weight:normal;font-size:49.8132019px;font-family:CMBX12;-inkscape-font-specification:CMBX12;writing-mode:lr-tb;fill:#ffffff;fill-opacity:1;fill-rule:nonzero;stroke:none"
                   transform="matrix(1,0,0,-1,6.923,19.411)"><tspan
                     id="tspan150"
                     y="0"
                     x="0 31.133249">S7</tspan></text>
<g
                   transform="translate(6.923,19.411)"
                   id="g154" /></g></g><g
               transform="translate(29.577,387.861)"
               id="g156" /></g></g><g
           id="g158"><g
             id="g160"><path
               id="path162"
               style="fill:#008080;fill-opacity:1;fill-rule:nonzero;stroke:#008080;stroke-width:1.13384998;stroke-linecap:butt;stroke-linejoin:miter;stroke-miterlimit:10;stroke-dasharray:none;stroke-opacity:1"
               d="m 216.83658,-335.34282 h -62.89682 c -2.20094,0 -3.98511,-1.78416 -3.98511,-3.98511 v -62.89682 c 0,-2.20094 1.78417,-3.9851 3.98511,-3.9851 h 62.89682 c 2.20094,0 3.98511,1.78416 3.98511,3.9851 v 62.89682 c 0,2.20095 -1.78417,3.98511 -3.98511,3.98511 z" /></g><g
             transform="translate(155.809,-387.861)"
             id="g164"><g
               id="g166"><g
                 transform="translate(-192.309,-19.411)"
                 id="g168"><text
                   id="text172"
                   style="font-variant:normal;font-weight:normal;font-size:49.8132019px;font-family:CMBX12;-inkscape-font-specification:CMBX12;writing-mode:lr-tb;fill:#ffffff;fill-opacity:1;fill-rule:nonzero;stroke:none"
                   transform="matrix(1,0,0,-1,192.309,19.411)"><tspan
                     id="tspan170"
                     y="0"
                     x="0 31.133249">S8</tspan></text>
<g
                   transform="translate(192.309,19.411)"
                   id="g174" /></g></g><g
               transform="translate(-155.809,387.861)"
               id="g176" /></g></g><g
           id="g178"><g
             id="g180"><path
               id="path182"
               style="fill:#008080;fill-opacity:1;fill-rule:nonzero;stroke:#008080;stroke-width:1.13384998;stroke-linecap:butt;stroke-linejoin:miter;stroke-miterlimit:10;stroke-dasharray:none;stroke-opacity:1"
               d="m 402.22475,-335.34282 h -62.89682 c -2.20095,0 -3.98511,-1.78416 -3.98511,-3.98511 v -62.89682 c 0,-2.20094 1.78416,-3.9851 3.98511,-3.9851 h 62.89682 c 2.20094,0 3.9851,1.78416 3.9851,3.9851 v 62.89682 c 0,2.20095 -1.78416,3.98511 -3.9851,3.98511 z" /></g><g
             transform="translate(341.195,-387.861)"
             id="g184"><g
               id="g186"><g
                 transform="translate(-377.695,-19.411)"
                 id="g188"><text
                   id="text192"
                   style="font-variant:normal;font-weight:normal;font-size:49.8132019px;font-family:CMBX12;-inkscape-font-specification:CMBX12;writing-mode:lr-tb;fill:#ffffff;fill-opacity:1;fill-rule:nonzero;stroke:none"
                   transform="matrix(1,0,0,-1,377.695,19.411)"><tspan
                     id="tspan190"
                     y="0"
                     x="0 31.133249">S9</tspan></text>
<g
                   transform="translate(377.695,19.411)"
                   id="g194" /></g></g><g
               transform="translate(-341.195,387.861)"
               id="g196" /></g></g><g
           id="g198"><path
             id="path200"
             style="fill:none;stroke:#000000;stroke-width:4.25199986;stroke-linecap:butt;stroke-linejoin:miter;stroke-miterlimit:10;stroke-dasharray:none;stroke-opacity:1"
             d="M 36.00044,0 H 149.38773" /></g><g
           id="g202"><path
             id="path204"
             style="fill:none;stroke:#000000;stroke-width:4.25199986;stroke-linecap:butt;stroke-linejoin:miter;stroke-miterlimit:10;stroke-dasharray:none;stroke-opacity:1"
             d="M 221.38861,0 H 334.7759" /></g><g
           id="g206"><path
             id="path208"
             style="fill:none;stroke:#000000;stroke-width:4.25199986;stroke-linecap:butt;stroke-linejoin:miter;stroke-miterlimit:10;stroke-dasharray:none;stroke-opacity:1"
             d="M 36.00044,-185.38817 H 149.38773" /></g><g
           id="g210"><path
             id="path212"
             style="fill:none;stroke:#000000;stroke-width:4.25199986;stroke-linecap:butt;stroke-linejoin:miter;stroke-miterlimit:10;stroke-dasharray:none;stroke-opacity:1"
             d="M 221.38861,-185.38817 H 334.7759" /></g><g
           id="g214"><path
             id="path216"
             style="fill:none;stroke:#000000;stroke-width:4.25199986;stroke-linecap:butt;stroke-linejoin:miter;stroke-miterlimit:10;stroke-dasharray:none;stroke-opacity:1"
             d="M 36.00044,-370.77634 H 149.38773" /></g><g
           id="g218"><path
             id="path220"
             style="fill:none;stroke:#000000;stroke-width:4.25199986;stroke-linecap:butt;stroke-linejoin:miter;stroke-miterlimit:10;stroke-dasharray:none;stroke-opacity:1"
             d="M 221.38861,-370.77634 H 334.7759" /></g><g
           id="g222"><path
             id="path224"
             style="fill:none;stroke:#000000;stroke-width:4.25199986;stroke-linecap:butt;stroke-linejoin:miter;stroke-miterlimit:10;stroke-dasharray:none;stroke-opacity:1"
             d="M 0,-36.00044 V -149.38773" /></g><g
           id="g226"><path
             id="path228"
             style="fill:none;stroke:#000000;stroke-width:4.25199986;stroke-linecap:butt;stroke-linejoin:miter;stroke-miterlimit:10;stroke-dasharray:none;stroke-opacity:1"
             d="M 185.38817,-36.00044 V -149.38773" /></g><g
           id="g230"><path
             id="path232"
             style="fill:none;stroke:#000000;stroke-width:4.25199986;stroke-linecap:butt;stroke-linejoin:miter;stroke-miterlimit:10;stroke-dasharray:none;stroke-opacity:1"
             d="M 370.77634,-36.00044 V -149.38773" /></g><g
           id="g234"><path
             id="path236"
             style="fill:none;stroke:#000000;stroke-width:4.25199986;stroke-linecap:butt;stroke-linejoin:miter;stroke-miterlimit:10;stroke-dasharray:none;stroke-opacity:1"
             d="M 0,-221.38861 V -334.7759" /></g><g
           id="g238"><path
             id="path240"
             style="fill:none;stroke:#000000;stroke-width:4.25199986;stroke-linecap:butt;stroke-linejoin:miter;stroke-miterlimit:10;stroke-dasharray:none;stroke-opacity:1"
             d="M 185.38817,-221.38861 V -334.7759" /></g><g
           id="g242"><path
             id="path244"
             style="fill:none;stroke:#000000;stroke-width:4.25199986;stroke-linecap:butt;stroke-linejoin:miter;stroke-miterlimit:10;stroke-dasharray:none;stroke-opacity:1"
             d="M 370.77634,-221.38861 V -334.7759" /></g></g></g></g></svg>