<?xml version="1.0" encoding="UTF-8" standalone="no"?>
<svg
   xmlns:dc="http://purl.org/dc/elements/1.1/"
   xmlns:cc="http://creativecommons.org/ns#"
   xmlns:rdf="http://www.w3.org/1999/02/22-rdf-syntax-ns#"
   xmlns:svg="http://www.w3.org/2000/svg"
   xmlns="http://www.w3.org/2000/svg"
   viewBox="0 0 1086.0573 1086.0573"
   height="1086.0573"
   width="1086.0573"
   xml:space="preserve"
   id="svg2"
   version="1.1"><metadata
     id="metadata8"><rdf:RDF><cc:Work
         rdf:about=""><dc:format>image/svg+xml</dc:format><dc:type
           rdf:resource="http://purl.org/dc/dcmitype/StillImage" /></cc:Work></rdf:RDF></metadata><defs
     id="defs6" /><g
     transform="matrix(1.3333333,0,0,-1.3333333,48.666665,48.666659)"
     id="g10"><g
       id="g12"><g
         id="g14" /><g
         id="g16"><g
           id="g18"><g
             id="g20"><path
               id="path22"
               style="fill:#008080;fill-opacity:1;fill-rule:nonzero;stroke:#008080;stroke-width:1.13384998;stroke-linecap:butt;stroke-linejoin:miter;stroke-miterlimit:10;stroke-dasharray:none;stroke-opacity:1"
               d="m 31.4484,35.4335 h -62.8968 c -2.20094,0 -3.9851,-1.78416 -3.9851,-3.9851 v -62.8968 c 0,-2.20094 1.78416,-3.9851 3.9851,-3.9851 h 62.8968 c 2.20094,0 3.9851,1.78416 3.9851,3.9851 v 62.8968 c 0,2.20094 -1.78416,3.9851 -3.9851,3.9851 z" /></g><g
             transform="translate(-29.577,-17.089)"
             id="g24"><g
               id="g26"><g
                 transform="translate(-6.923,-760.954)"
                 id="g28"><text
                   id="text32"
                   style="font-variant:normal;font-weight:normal;font-size:49.8132019px;font-family:CMBX12;-inkscape-font-specification:CMBX12;writing-mode:lr-tb;fill:#ffffff;fill-opacity:1;fill-rule:nonzero;stroke:none"
                   transform="matrix(1,0,0,-1,6.923,760.954)"><tspan
                     id="tspan30"
                     y="0"
                     x="0 31.133249">S1</tspan></text>
<g
                   transform="translate(6.923,760.954)"
                   id="g34" /></g></g><g
               transform="translate(29.577,17.089)"
               id="g36" /></g></g><g
           id="g38"><g
             id="g40"><path
               id="path42"
               style="fill:#008080;fill-opacity:1;fill-rule:nonzero;stroke:#008080;stroke-width:1.13384998;stroke-linecap:butt;stroke-linejoin:miter;stroke-miterlimit:10;stroke-dasharray:none;stroke-opacity:1"
               d="m 216.83658,35.4335 h -62.89682 c -2.20094,0 -3.98511,-1.78416 -3.98511,-3.9851 v -62.8968 c 0,-2.20094 1.78417,-3.9851 3.98511,-3.9851 h 62.89682 c 2.20094,0 3.98511,1.78416 3.98511,3.9851 v 62.8968 c 0,2.20094 -1.78417,3.9851 -3.98511,3.9851 z" /></g><g
             transform="translate(155.809,-17.089)"
             id="g44"><g
               id="g46"><g
                 transform="translate(-192.309,-760.954)"
                 id="g48"><text
                   id="text52"
                   style="font-variant:normal;font-weight:normal;font-size:49.8132019px;font-family:CMBX12;-inkscape-font-specification:CMBX12;writing-mode:lr-tb;fill:#ffffff;fill-opacity:1;fill-rule:nonzero;stroke:none"
                   transform="matrix(1,0,0,-1,192.309,760.954)"><tspan
                     id="tspan50"
                     y="0"
                     x="0 31.133249">S2</tspan></text>
<g
                   transform="translate(192.309,760.954)"
                   id="g54" /></g></g><g
               transform="translate(-155.809,17.089)"
               id="g56" /></g></g><g
           id="g58"><g
             id="g60"><path
               id="path62"
               style="fill:#008080;fill-opacity:1;fill-rule:nonzero;stroke:#008080;stroke-width:1.13384998;stroke-linecap:butt;stroke-linejoin:miter;stroke-miterlimit:10;stroke-dasharray:none;stroke-opacity:1"
               d="m 402.22475,35.4335 h -62.89682 c -2.20095,0 -3.98511,-1.78416 -3.98511,-3.9851 v -62.8968 c 0,-2.20094 1.78416,-3.9851 3.98511,-3.9851 h 62.89682 c 2.20094,0 3.9851,1.78416 3.9851,3.9851 v 62.8968 c 0,2.20094 -1.78416,3.9851 -3.9851,3.9851 z" /></g><g
             transform="translate(341.195,-17.089)"
             id="g64"><g
               id="g66"><g
                 transform="translate(-377.695,-760.954)"
                 id="g68"><text
                   id="text72"
                   style="font-variant:normal;font-weight:normal;font-size:49.8132019px;font-family:CMBX12;-inkscape-font-specification:CMBX12;writing-mode:lr-tb;fill:#ffffff;fill-opacity:1;fill-rule:nonzero;stroke:none"
                   transform="matrix(1,0,0,-1,377.695,760.954)"><tspan
                     id="tspan70"
                     y="0"
                     x="0 31.133249">S3</tspan></text>
<g
                   transform="translate(377.695,760.954)"
                   id="g74" /></g></g><g
               transform="translate(-341.195,17.089)"
               id="g76" /></g></g><g
           id="g78"><g
             id="g80"><path
               id="path82"
               style="fill:#008080;fill-opacity:1;fill-rule:nonzero;stroke:#008080;stroke-width:1.13384998;stroke-linecap:butt;stroke-linejoin:miter;stroke-miterlimit:10;stroke-dasharray:none;stroke-opacity:1"
               d="M 587.61292,35.4335 H 524.7161 c -2.20095,0 -3.98511,-1.78416 -3.98511,-3.9851 v -62.8968 c 0,-2.20094 1.78416,-3.9851 3.98511,-3.9851 h 62.89682 c 2.20094,0 3.9851,1.78416 3.9851,3.9851 v 62.8968 c 0,2.20094 -1.78416,3.9851 -3.9851,3.9851 z" /></g><g
             transform="translate(526.581,-17.089)"
             id="g84"><g
               id="g86"><g
                 transform="translate(-563.081,-760.954)"
                 id="g88"><text
                   id="text92"
                   style="font-variant:normal;font-weight:normal;font-size:49.8132019px;font-family:CMBX12;-inkscape-font-specification:CMBX12;writing-mode:lr-tb;fill:#ffffff;fill-opacity:1;fill-rule:nonzero;stroke:none"
                   transform="matrix(1,0,0,-1,563.081,760.954)"><tspan
                     id="tspan90"
                     y="0"
                     x="0 31.133249">S4</tspan></text>
<g
                   transform="translate(563.081,760.954)"
                   id="g94" /></g></g><g
               transform="translate(-526.581,17.089)"
               id="g96" /></g></g><g
           id="g98"><g
             id="g100"><path
               id="path102"
               style="fill:#008080;fill-opacity:1;fill-rule:nonzero;stroke:#008080;stroke-width:1.13384998;stroke-linecap:butt;stroke-linejoin:miter;stroke-miterlimit:10;stroke-dasharray:none;stroke-opacity:1"
               d="m 773.00108,35.4335 h -62.8968 c -2.20094,0 -3.98511,-1.78416 -3.98511,-3.9851 v -62.8968 c 0,-2.20094 1.78417,-3.9851 3.98511,-3.9851 h 62.8968 c 2.20095,0 3.98511,1.78416 3.98511,3.9851 v 62.8968 c 0,2.20094 -1.78416,3.9851 -3.98511,3.9851 z" /></g><g
             transform="translate(711.967,-17.089)"
             id="g104"><g
               id="g106"><g
                 transform="translate(-748.467,-760.954)"
                 id="g108"><text
                   id="text112"
                   style="font-variant:normal;font-weight:normal;font-size:49.8132019px;font-family:CMBX12;-inkscape-font-specification:CMBX12;writing-mode:lr-tb;fill:#ffffff;fill-opacity:1;fill-rule:nonzero;stroke:none"
                   transform="matrix(1,0,0,-1,748.467,760.954)"><tspan
                     id="tspan110"
                     y="0"
                     x="0 31.133249">S5</tspan></text>
<g
                   transform="translate(748.467,760.954)"
                   id="g114" /></g></g><g
               transform="translate(-711.967,17.089)"
               id="g116" /></g></g><g
           id="g118"><g
             id="g120"><path
               id="path122"
               style="fill:#008080;fill-opacity:1;fill-rule:nonzero;stroke:#008080;stroke-width:1.13384998;stroke-linecap:butt;stroke-linejoin:miter;stroke-miterlimit:10;stroke-dasharray:none;stroke-opacity:1"
               d="m 31.4484,-149.95465 h -62.8968 c -2.20094,0 -3.9851,-1.78417 -3.9851,-3.98511 v -62.89682 c 0,-2.20094 1.78416,-3.98511 3.9851,-3.98511 h 62.8968 c 2.20094,0 3.9851,1.78417 3.9851,3.98511 v 62.89682 c 0,2.20094 -1.78416,3.98511 -3.9851,3.98511 z" /></g><g
             transform="translate(-29.577,-202.474)"
             id="g124"><g
               id="g126"><g
                 transform="translate(-6.923,-575.569)"
                 id="g128"><text
                   id="text132"
                   style="font-variant:normal;font-weight:normal;font-size:49.8132019px;font-family:CMBX12;-inkscape-font-specification:CMBX12;writing-mode:lr-tb;fill:#ffffff;fill-opacity:1;fill-rule:nonzero;stroke:none"
                   transform="matrix(1,0,0,-1,6.923,575.569)"><tspan
                     id="tspan130"
                     y="0"
                     x="0 31.133249">S6</tspan></text>
<g
                   transform="translate(6.923,575.569)"
                   id="g134" /></g></g><g
               transform="translate(29.577,202.474)"
               id="g136" /></g></g><g
           id="g138"><g
             id="g140"><path
               id="path142"
               style="fill:#008080;fill-opacity:1;fill-rule:nonzero;stroke:#008080;stroke-width:1.13384998;stroke-linecap:butt;stroke-linejoin:miter;stroke-miterlimit:10;stroke-dasharray:none;stroke-opacity:1"
               d="m 216.83658,-149.95465 h -62.89682 c -2.20094,0 -3.98511,-1.78417 -3.98511,-3.98511 v -62.89682 c 0,-2.20094 1.78417,-3.98511 3.98511,-3.98511 h 62.89682 c 2.20094,0 3.98511,1.78417 3.98511,3.98511 v 62.89682 c 0,2.20094 -1.78417,3.98511 -3.98511,3.98511 z" /></g><g
             transform="translate(155.809,-202.474)"
             id="g144"><g
               id="g146"><g
                 transform="translate(-192.309,-575.569)"
                 id="g148"><text
                   id="text152"
                   style="font-variant:normal;font-weight:normal;font-size:49.8132019px;font-family:CMBX12;-inkscape-font-specification:CMBX12;writing-mode:lr-tb;fill:#ffffff;fill-opacity:1;fill-rule:nonzero;stroke:none"
                   transform="matrix(1,0,0,-1,192.309,575.569)"><tspan
                     id="tspan150"
                     y="0"
                     x="0 31.133249">S7</tspan></text>
<g
                   transform="translate(192.309,575.569)"
                   id="g154" /></g></g><g
               transform="translate(-155.809,202.474)"
               id="g156" /></g></g><g
           id="g158"><g
             id="g160"><path
               id="path162"
               style="fill:#008080;fill-opacity:1;fill-rule:nonzero;stroke:#008080;stroke-width:1.13384998;stroke-linecap:butt;stroke-linejoin:miter;stroke-miterlimit:10;stroke-dasharray:none;stroke-opacity:1"
               d="m 402.22475,-149.95465 h -62.89682 c -2.20095,0 -3.98511,-1.78417 -3.98511,-3.98511 v -62.89682 c 0,-2.20094 1.78416,-3.98511 3.98511,-3.98511 h 62.89682 c 2.20094,0 3.9851,1.78417 3.9851,3.98511 v 62.89682 c 0,2.20094 -1.78416,3.98511 -3.9851,3.98511 z" /></g><g
             transform="translate(341.195,-202.474)"
             id="g164"><g
               id="g166"><g
                 transform="translate(-377.695,-575.569)"
                 id="g168"><text
                   id="text172"
                   style="font-variant:normal;font-weight:normal;font-size:49.8132019px;font-family:CMBX12;-inkscape-font-specification:CMBX12;writing-mode:lr-tb;fill:#ffffff;fill-opacity:1;fill-rule:nonzero;stroke:none"
                   transform="matrix(1,0,0,-1,377.695,575.569)"><tspan
                     id="tspan170"
                     y="0"
                     x="0 31.133249">S8</tspan></text>
<g
                   transform="translate(377.695,575.569)"
                   id="g174" /></g></g><g
               transform="translate(-341.195,202.474)"
               id="g176" /></g></g><g
           id="g178"><g
             id="g180"><path
               id="path182"
               style="fill:#008080;fill-opacity:1;fill-rule:nonzero;stroke:#008080;stroke-width:1.13384998;stroke-linecap:butt;stroke-linejoin:miter;stroke-miterlimit:10;stroke-dasharray:none;stroke-opacity:1"
               d="M 587.61292,-149.95465 H 524.7161 c -2.20095,0 -3.98511,-1.78417 -3.98511,-3.98511 v -62.89682 c 0,-2.20094 1.78416,-3.98511 3.98511,-3.98511 h 62.89682 c 2.20094,0 3.9851,1.78417 3.9851,3.98511 v 62.89682 c 0,2.20094 -1.78416,3.98511 -3.9851,3.98511 z" /></g><g
             transform="translate(526.581,-202.474)"
             id="g184"><g
               id="g186"><g
                 transform="translate(-563.081,-575.569)"
                 id="g188"><text
                   id="text192"
                   style="font-variant:normal;font-weight:normal;font-size:49.8132019px;font-family:CMBX12;-inkscape-font-specification:CMBX12;writing-mode:lr-tb;fill:#ffffff;fill-opacity:1;fill-rule:nonzero;stroke:none"
                   transform="matrix(1,0,0,-1,563.081,575.569)"><tspan
                     id="tspan190"
                     y="0"
                     x="0 31.133249">S9</tspan></text>
<g
                   transform="translate(563.081,575.569)"
                   id="g194" /></g></g><g
               transform="translate(-526.581,202.474)"
               id="g196" /></g></g><g
           id="g198"><g
             id="g200"><path
               id="path202"
               style="fill:#008080;fill-opacity:1;fill-rule:nonzero;stroke:#008080;stroke-width:1.13384998;stroke-linecap:butt;stroke-linejoin:miter;stroke-miterlimit:10;stroke-dasharray:none;stroke-opacity:1"
               d="m 773.00108,-149.95465 h -62.8968 c -2.20094,0 -3.98511,-1.78417 -3.98511,-3.98511 v -62.89682 c 0,-2.20094 1.78417,-3.98511 3.98511,-3.98511 h 62.8968 c 2.20095,0 3.98511,1.78417 3.98511,3.98511 v 62.89682 c 0,2.20094 -1.78416,3.98511 -3.98511,3.98511 z" /></g><g
             transform="translate(711.033,-197.348)"
             id="g204"><g
               id="g206"><g
                 transform="translate(-747.533,-580.695)"
                 id="g208"><text
                   id="text212"
                   style="font-variant:normal;font-weight:normal;font-size:34.86920166px;font-family:CMBX12;-inkscape-font-specification:CMBX12;writing-mode:lr-tb;fill:#ffffff;fill-opacity:1;fill-rule:nonzero;stroke:none"
                   transform="matrix(1,0,0,-1,747.533,580.695)"><tspan
                     id="tspan210"
                     y="0"
                     x="0 21.793249 41.407173">S10</tspan></text>
<g
                   transform="translate(747.533,580.695)"
                   id="g214" /></g></g><g
               transform="translate(-711.033,197.348)"
               id="g216" /></g></g><g
           id="g218"><g
             id="g220"><path
               id="path222"
               style="fill:#008080;fill-opacity:1;fill-rule:nonzero;stroke:#008080;stroke-width:1.13384998;stroke-linecap:butt;stroke-linejoin:miter;stroke-miterlimit:10;stroke-dasharray:none;stroke-opacity:1"
               d="m 31.4484,-335.34282 h -62.8968 c -2.20094,0 -3.9851,-1.78416 -3.9851,-3.98511 v -62.89682 c 0,-2.20094 1.78416,-3.9851 3.9851,-3.9851 h 62.8968 c 2.20094,0 3.9851,1.78416 3.9851,3.9851 v 62.89682 c 0,2.20095 -1.78416,3.98511 -3.9851,3.98511 z" /></g><g
             transform="translate(-30.511,-382.734)"
             id="g224"><g
               id="g226"><g
                 transform="translate(-5.989,-395.309)"
                 id="g228"><text
                   id="text232"
                   style="font-variant:normal;font-weight:normal;font-size:34.86920166px;font-family:CMBX12;-inkscape-font-specification:CMBX12;writing-mode:lr-tb;fill:#ffffff;fill-opacity:1;fill-rule:nonzero;stroke:none"
                   transform="matrix(1,0,0,-1,5.989,395.309)"><tspan
                     id="tspan230"
                     y="0"
                     x="0 21.793249 41.407173">S11</tspan></text>
<g
                   transform="translate(5.989,395.309)"
                   id="g234" /></g></g><g
               transform="translate(30.511,382.734)"
               id="g236" /></g></g><g
           id="g238"><g
             id="g240"><path
               id="path242"
               style="fill:#008080;fill-opacity:1;fill-rule:nonzero;stroke:#008080;stroke-width:1.13384998;stroke-linecap:butt;stroke-linejoin:miter;stroke-miterlimit:10;stroke-dasharray:none;stroke-opacity:1"
               d="m 216.83658,-335.34282 h -62.89682 c -2.20094,0 -3.98511,-1.78416 -3.98511,-3.98511 v -62.89682 c 0,-2.20094 1.78417,-3.9851 3.98511,-3.9851 h 62.89682 c 2.20094,0 3.98511,1.78416 3.98511,3.9851 v 62.89682 c 0,2.20095 -1.78417,3.98511 -3.98511,3.98511 z" /></g><g
             transform="translate(154.875,-382.734)"
             id="g244"><g
               id="g246"><g
                 transform="translate(-191.375,-395.309)"
                 id="g248"><text
                   id="text252"
                   style="font-variant:normal;font-weight:normal;font-size:34.86920166px;font-family:CMBX12;-inkscape-font-specification:CMBX12;writing-mode:lr-tb;fill:#ffffff;fill-opacity:1;fill-rule:nonzero;stroke:none"
                   transform="matrix(1,0,0,-1,191.375,395.309)"><tspan
                     id="tspan250"
                     y="0"
                     x="0 21.793249 41.407173">S12</tspan></text>
<g
                   transform="translate(191.375,395.309)"
                   id="g254" /></g></g><g
               transform="translate(-154.875,382.734)"
               id="g256" /></g></g><g
           id="g258"><g
             id="g260"><path
               id="path262"
               style="fill:#008080;fill-opacity:1;fill-rule:nonzero;stroke:#008080;stroke-width:1.13384998;stroke-linecap:butt;stroke-linejoin:miter;stroke-miterlimit:10;stroke-dasharray:none;stroke-opacity:1"
               d="m 402.22475,-335.34282 h -62.89682 c -2.20095,0 -3.98511,-1.78416 -3.98511,-3.98511 v -62.89682 c 0,-2.20094 1.78416,-3.9851 3.98511,-3.9851 h 62.89682 c 2.20094,0 3.9851,1.78416 3.9851,3.9851 v 62.89682 c 0,2.20095 -1.78416,3.98511 -3.9851,3.98511 z" /></g><g
             transform="translate(340.261,-382.734)"
             id="g264"><g
               id="g266"><g
                 transform="translate(-376.761,-395.309)"
                 id="g268"><text
                   id="text272"
                   style="font-variant:normal;font-weight:normal;font-size:34.86920166px;font-family:CMBX12;-inkscape-font-specification:CMBX12;writing-mode:lr-tb;fill:#ffffff;fill-opacity:1;fill-rule:nonzero;stroke:none"
                   transform="matrix(1,0,0,-1,376.761,395.309)"><tspan
                     id="tspan270"
                     y="0"
                     x="0 21.793249 41.407173">S13</tspan></text>
<g
                   transform="translate(376.761,395.309)"
                   id="g274" /></g></g><g
               transform="translate(-340.261,382.734)"
               id="g276" /></g></g><g
           id="g278"><g
             id="g280"><path
               id="path282"
               style="fill:#008080;fill-opacity:1;fill-rule:nonzero;stroke:#008080;stroke-width:1.13384998;stroke-linecap:butt;stroke-linejoin:miter;stroke-miterlimit:10;stroke-dasharray:none;stroke-opacity:1"
               d="M 587.61292,-335.34282 H 524.7161 c -2.20095,0 -3.98511,-1.78416 -3.98511,-3.98511 v -62.89682 c 0,-2.20094 1.78416,-3.9851 3.98511,-3.9851 h 62.89682 c 2.20094,0 3.9851,1.78416 3.9851,3.9851 v 62.89682 c 0,2.20095 -1.78416,3.98511 -3.9851,3.98511 z" /></g><g
             transform="translate(525.647,-382.734)"
             id="g284"><g
               id="g286"><g
                 transform="translate(-562.147,-395.309)"
                 id="g288"><text
                   id="text292"
                   style="font-variant:normal;font-weight:normal;font-size:34.86920166px;font-family:CMBX12;-inkscape-font-specification:CMBX12;writing-mode:lr-tb;fill:#ffffff;fill-opacity:1;fill-rule:nonzero;stroke:none"
                   transform="matrix(1,0,0,-1,562.147,395.309)"><tspan
                     id="tspan290"
                     y="0"
                     x="0 21.793249 41.407173">S14</tspan></text>
<g
                   transform="translate(562.147,395.309)"
                   id="g294" /></g></g><g
               transform="translate(-525.647,382.734)"
               id="g296" /></g></g><g
           id="g298"><g
             id="g300"><path
               id="path302"
               style="fill:#008080;fill-opacity:1;fill-rule:nonzero;stroke:#008080;stroke-width:1.13384998;stroke-linecap:butt;stroke-linejoin:miter;stroke-miterlimit:10;stroke-dasharray:none;stroke-opacity:1"
               d="m 773.00108,-335.34282 h -62.8968 c -2.20094,0 -3.98511,-1.78416 -3.98511,-3.98511 v -62.89682 c 0,-2.20094 1.78417,-3.9851 3.98511,-3.9851 h 62.8968 c 2.20095,0 3.98511,1.78416 3.98511,3.9851 v 62.89682 c 0,2.20095 -1.78416,3.98511 -3.98511,3.98511 z" /></g><g
             transform="translate(711.033,-382.734)"
             id="g304"><g
               id="g306"><g
                 transform="translate(-747.533,-395.309)"
                 id="g308"><text
                   id="text312"
                   style="font-variant:normal;font-weight:normal;font-size:34.86920166px;font-family:CMBX12;-inkscape-font-specification:CMBX12;writing-mode:lr-tb;fill:#ffffff;fill-opacity:1;fill-rule:nonzero;stroke:none"
                   transform="matrix(1,0,0,-1,747.533,395.309)"><tspan
                     id="tspan310"
                     y="0"
                     x="0 21.793249 41.407173">S15</tspan></text>
<g
                   transform="translate(747.533,395.309)"
                   id="g314" /></g></g><g
               transform="translate(-711.033,382.734)"
               id="g316" /></g></g><g
           id="g318"><g
             id="g320"><path
               id="path322"
               style="fill:#008080;fill-opacity:1;fill-rule:nonzero;stroke:#008080;stroke-width:1.13384998;stroke-linecap:butt;stroke-linejoin:miter;stroke-miterlimit:10;stroke-dasharray:none;stroke-opacity:1"
               d="m 31.4484,-520.73099 h -62.8968 c -2.20094,0 -3.9851,-1.78416 -3.9851,-3.98511 v -62.89682 c 0,-2.20094 1.78416,-3.9851 3.9851,-3.9851 h 62.8968 c 2.20094,0 3.9851,1.78416 3.9851,3.9851 v 62.89682 c 0,2.20095 -1.78416,3.98511 -3.9851,3.98511 z" /></g><g
             transform="translate(-30.511,-568.119)"
             id="g324"><g
               id="g326"><g
                 transform="translate(-5.989,-209.924)"
                 id="g328"><text
                   id="text332"
                   style="font-variant:normal;font-weight:normal;font-size:34.86920166px;font-family:CMBX12;-inkscape-font-specification:CMBX12;writing-mode:lr-tb;fill:#ffffff;fill-opacity:1;fill-rule:nonzero;stroke:none"
                   transform="matrix(1,0,0,-1,5.989,209.924)"><tspan
                     id="tspan330"
                     y="0"
                     x="0 21.793249 41.407173">S16</tspan></text>
<g
                   transform="translate(5.989,209.924)"
                   id="g334" /></g></g><g
               transform="translate(30.511,568.119)"
               id="g336" /></g></g><g
           id="g338"><g
             id="g340"><path
               id="path342"
               style="fill:#008080;fill-opacity:1;fill-rule:nonzero;stroke:#008080;stroke-width:1.13384998;stroke-linecap:butt;stroke-linejoin:miter;stroke-miterlimit:10;stroke-dasharray:none;stroke-opacity:1"
               d="m 216.83658,-520.73099 h -62.89682 c -2.20094,0 -3.98511,-1.78416 -3.98511,-3.98511 v -62.89682 c 0,-2.20094 1.78417,-3.9851 3.98511,-3.9851 h 62.89682 c 2.20094,0 3.98511,1.78416 3.98511,3.9851 v 62.89682 c 0,2.20095 -1.78417,3.98511 -3.98511,3.98511 z" /></g><g
             transform="translate(154.875,-568.119)"
             id="g344"><g
               id="g346"><g
                 transform="translate(-191.375,-209.924)"
                 id="g348"><text
                   id="text352"
                   style="font-variant:normal;font-weight:normal;font-size:34.86920166px;font-family:CMBX12;-inkscape-font-specification:CMBX12;writing-mode:lr-tb;fill:#ffffff;fill-opacity:1;fill-rule:nonzero;stroke:none"
                   transform="matrix(1,0,0,-1,191.375,209.924)"><tspan
                     id="tspan350"
                     y="0"
                     x="0 21.793249 41.407173">S17</tspan></text>
<g
                   transform="translate(191.375,209.924)"
                   id="g354" /></g></g><g
               transform="translate(-154.875,568.119)"
               id="g356" /></g></g><g
           id="g358"><g
             id="g360"><path
               id="path362"
               style="fill:#008080;fill-opacity:1;fill-rule:nonzero;stroke:#008080;stroke-width:1.13384998;stroke-linecap:butt;stroke-linejoin:miter;stroke-miterlimit:10;stroke-dasharray:none;stroke-opacity:1"
               d="m 402.22475,-520.73099 h -62.89682 c -2.20095,0 -3.98511,-1.78416 -3.98511,-3.98511 v -62.89682 c 0,-2.20094 1.78416,-3.9851 3.98511,-3.9851 h 62.89682 c 2.20094,0 3.9851,1.78416 3.9851,3.9851 v 62.89682 c 0,2.20095 -1.78416,3.98511 -3.9851,3.98511 z" /></g><g
             transform="translate(340.261,-568.119)"
             id="g364"><g
               id="g366"><g
                 transform="translate(-376.761,-209.924)"
                 id="g368"><text
                   id="text372"
                   style="font-variant:normal;font-weight:normal;font-size:34.86920166px;font-family:CMBX12;-inkscape-font-specification:CMBX12;writing-mode:lr-tb;fill:#ffffff;fill-opacity:1;fill-rule:nonzero;stroke:none"
                   transform="matrix(1,0,0,-1,376.761,209.924)"><tspan
                     id="tspan370"
                     y="0"
                     x="0 21.793249 41.407173">S18</tspan></text>
<g
                   transform="translate(376.761,209.924)"
                   id="g374" /></g></g><g
               transform="translate(-340.261,568.119)"
               id="g376" /></g></g><g
           id="g378"><g
             id="g380"><path
               id="path382"
               style="fill:#008080;fill-opacity:1;fill-rule:nonzero;stroke:#008080;stroke-width:1.13384998;stroke-linecap:butt;stroke-linejoin:miter;stroke-miterlimit:10;stroke-dasharray:none;stroke-opacity:1"
               d="M 587.61292,-520.73099 H 524.7161 c -2.20095,0 -3.98511,-1.78416 -3.98511,-3.98511 v -62.89682 c 0,-2.20094 1.78416,-3.9851 3.98511,-3.9851 h 62.89682 c 2.20094,0 3.9851,1.78416 3.9851,3.9851 v 62.89682 c 0,2.20095 -1.78416,3.98511 -3.9851,3.98511 z" /></g><g
             transform="translate(525.647,-568.119)"
             id="g384"><g
               id="g386"><g
                 transform="translate(-562.147,-209.924)"
                 id="g388"><text
                   id="text392"
                   style="font-variant:normal;font-weight:normal;font-size:34.86920166px;font-family:CMBX12;-inkscape-font-specification:CMBX12;writing-mode:lr-tb;fill:#ffffff;fill-opacity:1;fill-rule:nonzero;stroke:none"
                   transform="matrix(1,0,0,-1,562.147,209.924)"><tspan
                     id="tspan390"
                     y="0"
                     x="0 21.793249 41.407173">S19</tspan></text>
<g
                   transform="translate(562.147,209.924)"
                   id="g394" /></g></g><g
               transform="translate(-525.647,568.119)"
               id="g396" /></g></g><g
           id="g398"><g
             id="g400"><path
               id="path402"
               style="fill:#008080;fill-opacity:1;fill-rule:nonzero;stroke:#008080;stroke-width:1.13384998;stroke-linecap:butt;stroke-linejoin:miter;stroke-miterlimit:10;stroke-dasharray:none;stroke-opacity:1"
               d="m 773.00108,-520.73099 h -62.8968 c -2.20094,0 -3.98511,-1.78416 -3.98511,-3.98511 v -62.89682 c 0,-2.20094 1.78417,-3.9851 3.98511,-3.9851 h 62.8968 c 2.20095,0 3.98511,1.78416 3.98511,3.9851 v 62.89682 c 0,2.20095 -1.78416,3.98511 -3.98511,3.98511 z" /></g><g
             transform="translate(711.033,-568.119)"
             id="g404"><g
               id="g406"><g
                 transform="translate(-747.533,-209.924)"
                 id="g408"><text
                   id="text412"
                   style="font-variant:normal;font-weight:normal;font-size:34.86920166px;font-family:CMBX12;-inkscape-font-specification:CMBX12;writing-mode:lr-tb;fill:#ffffff;fill-opacity:1;fill-rule:nonzero;stroke:none"
                   transform="matrix(1,0,0,-1,747.533,209.924)"><tspan
                     id="tspan410"
                     y="0"
                     x="0 21.793249 41.407173">S20</tspan></text>
<g
                   transform="translate(747.533,209.924)"
                   id="g414" /></g></g><g
               transform="translate(-711.033,568.119)"
               id="g416" /></g></g><g
           id="g418"><g
             id="g420"><path
               id="path422"
               style="fill:#008080;fill-opacity:1;fill-rule:nonzero;stroke:#008080;stroke-width:1.13384998;stroke-linecap:butt;stroke-linejoin:miter;stroke-miterlimit:10;stroke-dasharray:none;stroke-opacity:1"
               d="m 31.4484,-706.11917 h -62.8968 c -2.20094,0 -3.9851,-1.78417 -3.9851,-3.98511 v -62.8968 c 0,-2.20095 1.78416,-3.98511 3.9851,-3.98511 h 62.8968 c 2.20094,0 3.9851,1.78416 3.9851,3.98511 v 62.8968 c 0,2.20094 -1.78416,3.98511 -3.9851,3.98511 z" /></g><g
             transform="translate(-30.511,-753.505)"
             id="g424"><g
               id="g426"><g
                 transform="translate(-5.989,-24.538)"
                 id="g428"><text
                   id="text432"
                   style="font-variant:normal;font-weight:normal;font-size:34.86920166px;font-family:CMBX12;-inkscape-font-specification:CMBX12;writing-mode:lr-tb;fill:#ffffff;fill-opacity:1;fill-rule:nonzero;stroke:none"
                   transform="matrix(1,0,0,-1,5.989,24.538)"><tspan
                     id="tspan430"
                     y="0"
                     x="0 21.793249 41.407173">S21</tspan></text>
<g
                   transform="translate(5.989,24.538)"
                   id="g434" /></g></g><g
               transform="translate(30.511,753.505)"
               id="g436" /></g></g><g
           id="g438"><g
             id="g440"><path
               id="path442"
               style="fill:#008080;fill-opacity:1;fill-rule:nonzero;stroke:#008080;stroke-width:1.13384998;stroke-linecap:butt;stroke-linejoin:miter;stroke-miterlimit:10;stroke-dasharray:none;stroke-opacity:1"
               d="m 216.83658,-706.11917 h -62.89682 c -2.20094,0 -3.98511,-1.78417 -3.98511,-3.98511 v -62.8968 c 0,-2.20095 1.78417,-3.98511 3.98511,-3.98511 h 62.89682 c 2.20094,0 3.98511,1.78416 3.98511,3.98511 v 62.8968 c 0,2.20094 -1.78417,3.98511 -3.98511,3.98511 z" /></g><g
             transform="translate(154.875,-753.505)"
             id="g444"><g
               id="g446"><g
                 transform="translate(-191.375,-24.538)"
                 id="g448"><text
                   id="text452"
                   style="font-variant:normal;font-weight:normal;font-size:34.86920166px;font-family:CMBX12;-inkscape-font-specification:CMBX12;writing-mode:lr-tb;fill:#ffffff;fill-opacity:1;fill-rule:nonzero;stroke:none"
                   transform="matrix(1,0,0,-1,191.375,24.538)"><tspan
                     id="tspan450"
                     y="0"
                     x="0 21.793249 41.407173">S22</tspan></text>
<g
                   transform="translate(191.375,24.538)"
                   id="g454" /></g></g><g
               transform="translate(-154.875,753.505)"
               id="g456" /></g></g><g
           id="g458"><g
             id="g460"><path
               id="path462"
               style="fill:#008080;fill-opacity:1;fill-rule:nonzero;stroke:#008080;stroke-width:1.13384998;stroke-linecap:butt;stroke-linejoin:miter;stroke-miterlimit:10;stroke-dasharray:none;stroke-opacity:1"
               d="m 402.22475,-706.11917 h -62.89682 c -2.20095,0 -3.98511,-1.78417 -3.98511,-3.98511 v -62.8968 c 0,-2.20095 1.78416,-3.98511 3.98511,-3.98511 h 62.89682 c 2.20094,0 3.9851,1.78416 3.9851,3.98511 v 62.8968 c 0,2.20094 -1.78416,3.98511 -3.9851,3.98511 z" /></g><g
             transform="translate(340.261,-753.505)"
             id="g464"><g
               id="g466"><g
                 transform="translate(-376.761,-24.538)"
                 id="g468"><text
                   id="text472"
                   style="font-variant:normal;font-weight:normal;font-size:34.86920166px;font-family:CMBX12;-inkscape-font-specification:CMBX12;writing-mode:lr-tb;fill:#ffffff;fill-opacity:1;fill-rule:nonzero;stroke:none"
                   transform="matrix(1,0,0,-1,376.761,24.538)"><tspan
                     id="tspan470"
                     y="0"
                     x="0 21.793249 41.407173">S23</tspan></text>
<g
                   transform="translate(376.761,24.538)"
                   id="g474" /></g></g><g
               transform="translate(-340.261,753.505)"
               id="g476" /></g></g><g
           id="g478"><g
             id="g480"><path
               id="path482"
               style="fill:#008080;fill-opacity:1;fill-rule:nonzero;stroke:#008080;stroke-width:1.13384998;stroke-linecap:butt;stroke-linejoin:miter;stroke-miterlimit:10;stroke-dasharray:none;stroke-opacity:1"
               d="M 587.61292,-706.11917 H 524.7161 c -2.20095,0 -3.98511,-1.78417 -3.98511,-3.98511 v -62.8968 c 0,-2.20095 1.78416,-3.98511 3.98511,-3.98511 h 62.89682 c 2.20094,0 3.9851,1.78416 3.9851,3.98511 v 62.8968 c 0,2.20094 -1.78416,3.98511 -3.9851,3.98511 z" /></g><g
             transform="translate(525.647,-753.505)"
             id="g484"><g
               id="g486"><g
                 transform="translate(-562.147,-24.538)"
                 id="g488"><text
                   id="text492"
                   style="font-variant:normal;font-weight:normal;font-size:34.86920166px;font-family:CMBX12;-inkscape-font-specification:CMBX12;writing-mode:lr-tb;fill:#ffffff;fill-opacity:1;fill-rule:nonzero;stroke:none"
                   transform="matrix(1,0,0,-1,562.147,24.538)"><tspan
                     id="tspan490"
                     y="0"
                     x="0 21.793249 41.407173">S24</tspan></text>
<g
                   transform="translate(562.147,24.538)"
                   id="g494" /></g></g><g
               transform="translate(-525.647,753.505)"
               id="g496" /></g></g><g
           id="g498"><g
             id="g500"><path
               id="path502"
               style="fill:#008080;fill-opacity:1;fill-rule:nonzero;stroke:#008080;stroke-width:1.13384998;stroke-linecap:butt;stroke-linejoin:miter;stroke-miterlimit:10;stroke-dasharray:none;stroke-opacity:1"
               d="m 773.00108,-706.11917 h -62.8968 c -2.20094,0 -3.98511,-1.78417 -3.98511,-3.98511 v -62.8968 c 0,-2.20095 1.78417,-3.98511 3.98511,-3.98511 h 62.8968 c 2.20095,0 3.98511,1.78416 3.98511,3.98511 v 62.8968 c 0,2.20094 -1.78416,3.98511 -3.98511,3.98511 z" /></g><g
             transform="translate(711.033,-753.505)"
             id="g504"><g
               id="g506"><g
                 transform="translate(-747.533,-24.538)"
                 id="g508"><text
                   id="text512"
                   style="font-variant:normal;font-weight:normal;font-size:34.86920166px;font-family:CMBX12;-inkscape-font-specification:CMBX12;writing-mode:lr-tb;fill:#ffffff;fill-opacity:1;fill-rule:nonzero;stroke:none"
                   transform="matrix(1,0,0,-1,747.533,24.538)"><tspan
                     id="tspan510"
                     y="0"
                     x="0 21.793249 41.407173">S25</tspan></text>
<g
                   transform="translate(747.533,24.538)"
                   id="g514" /></g></g><g
               transform="translate(-711.033,753.505)"
               id="g516" /></g></g><g
           id="g518"><path
             id="path520"
             style="fill:none;stroke:#000000;stroke-width:4.25199986;stroke-linecap:butt;stroke-linejoin:miter;stroke-miterlimit:10;stroke-dasharray:none;stroke-opacity:1"
             d="M 36.00044,0 H 149.38773" /></g><g
           id="g522"><path
             id="path524"
             style="fill:none;stroke:#000000;stroke-width:4.25199986;stroke-linecap:butt;stroke-linejoin:miter;stroke-miterlimit:10;stroke-dasharray:none;stroke-opacity:1"
             d="M 221.38861,0 H 334.7759" /></g><g
           id="g526"><path
             id="path528"
             style="fill:none;stroke:#000000;stroke-width:4.25199986;stroke-linecap:butt;stroke-linejoin:miter;stroke-miterlimit:10;stroke-dasharray:none;stroke-opacity:1"
             d="M 406.77678,0 H 520.16406" /></g><g
           id="g530"><path
             id="path532"
             style="fill:none;stroke:#000000;stroke-width:4.25199986;stroke-linecap:butt;stroke-linejoin:miter;stroke-miterlimit:10;stroke-dasharray:none;stroke-opacity:1"
             d="M 592.16495,0 H 705.55223" /></g><g
           id="g534"><path
             id="path536"
             style="fill:none;stroke:#000000;stroke-width:4.25199986;stroke-linecap:butt;stroke-linejoin:miter;stroke-miterlimit:10;stroke-dasharray:none;stroke-opacity:1"
             d="M 36.00044,-185.38817 H 149.38773" /></g><g
           id="g538"><path
             id="path540"
             style="fill:none;stroke:#000000;stroke-width:4.25199986;stroke-linecap:butt;stroke-linejoin:miter;stroke-miterlimit:10;stroke-dasharray:none;stroke-opacity:1"
             d="M 221.38861,-185.38817 H 334.7759" /></g><g
           id="g542"><path
             id="path544"
             style="fill:none;stroke:#000000;stroke-width:4.25199986;stroke-linecap:butt;stroke-linejoin:miter;stroke-miterlimit:10;stroke-dasharray:none;stroke-opacity:1"
             d="M 406.77678,-185.38817 H 520.16406" /></g><g
           id="g546"><path
             id="path548"
             style="fill:none;stroke:#000000;stroke-width:4.25199986;stroke-linecap:butt;stroke-linejoin:miter;stroke-miterlimit:10;stroke-dasharray:none;stroke-opacity:1"
             d="M 592.16495,-185.38817 H 705.55223" /></g><g
           id="g550"><path
             id="path552"
             style="fill:none;stroke:#000000;stroke-width:4.25199986;stroke-linecap:butt;stroke-linejoin:miter;stroke-miterlimit:10;stroke-dasharray:none;stroke-opacity:1"
             d="M 36.00044,-370.77634 H 149.38773" /></g><g
           id="g554"><path
             id="path556"
             style="fill:none;stroke:#000000;stroke-width:4.25199986;stroke-linecap:butt;stroke-linejoin:miter;stroke-miterlimit:10;stroke-dasharray:none;stroke-opacity:1"
             d="M 221.38861,-370.77634 H 334.7759" /></g><g
           id="g558"><path
             id="path560"
             style="fill:none;stroke:#000000;stroke-width:4.25199986;stroke-linecap:butt;stroke-linejoin:miter;stroke-miterlimit:10;stroke-dasharray:none;stroke-opacity:1"
             d="M 406.77678,-370.77634 H 520.16406" /></g><g
           id="g562"><path
             id="path564"
             style="fill:none;stroke:#000000;stroke-width:4.25199986;stroke-linecap:butt;stroke-linejoin:miter;stroke-miterlimit:10;stroke-dasharray:none;stroke-opacity:1"
             d="M 592.16495,-370.77634 H 705.55223" /></g><g
           id="g566"><path
             id="path568"
             style="fill:none;stroke:#000000;stroke-width:4.25199986;stroke-linecap:butt;stroke-linejoin:miter;stroke-miterlimit:10;stroke-dasharray:none;stroke-opacity:1"
             d="M 36.00044,-556.1645 H 149.38773" /></g><g
           id="g570"><path
             id="path572"
             style="fill:none;stroke:#000000;stroke-width:4.25199986;stroke-linecap:butt;stroke-linejoin:miter;stroke-miterlimit:10;stroke-dasharray:none;stroke-opacity:1"
             d="M 221.38861,-556.1645 H 334.7759" /></g><g
           id="g574"><path
             id="path576"
             style="fill:none;stroke:#000000;stroke-width:4.25199986;stroke-linecap:butt;stroke-linejoin:miter;stroke-miterlimit:10;stroke-dasharray:none;stroke-opacity:1"
             d="M 406.77678,-556.1645 H 520.16406" /></g><g
           id="g578"><path
             id="path580"
             style="fill:none;stroke:#000000;stroke-width:4.25199986;stroke-linecap:butt;stroke-linejoin:miter;stroke-miterlimit:10;stroke-dasharray:none;stroke-opacity:1"
             d="M 592.16495,-556.1645 H 705.55223" /></g><g
           id="g582"><path
             id="path584"
             style="fill:none;stroke:#000000;stroke-width:4.25199986;stroke-linecap:butt;stroke-linejoin:miter;stroke-miterlimit:10;stroke-dasharray:none;stroke-opacity:1"
             d="M 36.00044,-741.55267 H 149.38773" /></g><g
           id="g586"><path
             id="path588"
             style="fill:none;stroke:#000000;stroke-width:4.25199986;stroke-linecap:butt;stroke-linejoin:miter;stroke-miterlimit:10;stroke-dasharray:none;stroke-opacity:1"
             d="M 221.38861,-741.55267 H 334.7759" /></g><g
           id="g590"><path
             id="path592"
             style="fill:none;stroke:#000000;stroke-width:4.25199986;stroke-linecap:butt;stroke-linejoin:miter;stroke-miterlimit:10;stroke-dasharray:none;stroke-opacity:1"
             d="M 406.77678,-741.55267 H 520.16406" /></g><g
           id="g594"><path
             id="path596"
             style="fill:none;stroke:#000000;stroke-width:4.25199986;stroke-linecap:butt;stroke-linejoin:miter;stroke-miterlimit:10;stroke-dasharray:none;stroke-opacity:1"
             d="M 592.16495,-741.55267 H 705.55223" /></g><g
           id="g598"><path
             id="path600"
             style="fill:none;stroke:#000000;stroke-width:4.25199986;stroke-linecap:butt;stroke-linejoin:miter;stroke-miterlimit:10;stroke-dasharray:none;stroke-opacity:1"
             d="M 0,-36.00044 V -149.38773" /></g><g
           id="g602"><path
             id="path604"
             style="fill:none;stroke:#000000;stroke-width:4.25199986;stroke-linecap:butt;stroke-linejoin:miter;stroke-miterlimit:10;stroke-dasharray:none;stroke-opacity:1"
             d="M 185.38817,-36.00044 V -149.38773" /></g><g
           id="g606"><path
             id="path608"
             style="fill:none;stroke:#000000;stroke-width:4.25199986;stroke-linecap:butt;stroke-linejoin:miter;stroke-miterlimit:10;stroke-dasharray:none;stroke-opacity:1"
             d="M 370.77634,-36.00044 V -149.38773" /></g><g
           id="g610"><path
             id="path612"
             style="fill:none;stroke:#000000;stroke-width:4.25199986;stroke-linecap:butt;stroke-linejoin:miter;stroke-miterlimit:10;stroke-dasharray:none;stroke-opacity:1"
             d="M 556.1645,-36.00044 V -149.38773" /></g><g
           id="g614"><path
             id="path616"
             style="fill:none;stroke:#000000;stroke-width:4.25199986;stroke-linecap:butt;stroke-linejoin:miter;stroke-miterlimit:10;stroke-dasharray:none;stroke-opacity:1"
             d="M 741.55267,-36.00044 V -149.38773" /></g><g
           id="g618"><path
             id="path620"
             style="fill:none;stroke:#000000;stroke-width:4.25199986;stroke-linecap:butt;stroke-linejoin:miter;stroke-miterlimit:10;stroke-dasharray:none;stroke-opacity:1"
             d="M 0,-221.38861 V -334.7759" /></g><g
           id="g622"><path
             id="path624"
             style="fill:none;stroke:#000000;stroke-width:4.25199986;stroke-linecap:butt;stroke-linejoin:miter;stroke-miterlimit:10;stroke-dasharray:none;stroke-opacity:1"
             d="M 185.38817,-221.38861 V -334.7759" /></g><g
           id="g626"><path
             id="path628"
             style="fill:none;stroke:#000000;stroke-width:4.25199986;stroke-linecap:butt;stroke-linejoin:miter;stroke-miterlimit:10;stroke-dasharray:none;stroke-opacity:1"
             d="M 370.77634,-221.38861 V -334.7759" /></g><g
           id="g630"><path
             id="path632"
             style="fill:none;stroke:#000000;stroke-width:4.25199986;stroke-linecap:butt;stroke-linejoin:miter;stroke-miterlimit:10;stroke-dasharray:none;stroke-opacity:1"
             d="M 556.1645,-221.38861 V -334.7759" /></g><g
           id="g634"><path
             id="path636"
             style="fill:none;stroke:#000000;stroke-width:4.25199986;stroke-linecap:butt;stroke-linejoin:miter;stroke-miterlimit:10;stroke-dasharray:none;stroke-opacity:1"
             d="M 741.55267,-221.38861 V -334.7759" /></g><g
           id="g638"><path
             id="path640"
             style="fill:none;stroke:#000000;stroke-width:4.25199986;stroke-linecap:butt;stroke-linejoin:miter;stroke-miterlimit:10;stroke-dasharray:none;stroke-opacity:1"
             d="M 0,-406.77678 V -520.16406" /></g><g
           id="g642"><path
             id="path644"
             style="fill:none;stroke:#000000;stroke-width:4.25199986;stroke-linecap:butt;stroke-linejoin:miter;stroke-miterlimit:10;stroke-dasharray:none;stroke-opacity:1"
             d="M 185.38817,-406.77678 V -520.16406" /></g><g
           id="g646"><path
             id="path648"
             style="fill:none;stroke:#000000;stroke-width:4.25199986;stroke-linecap:butt;stroke-linejoin:miter;stroke-miterlimit:10;stroke-dasharray:none;stroke-opacity:1"
             d="M 370.77634,-406.77678 V -520.16406" /></g><g
           id="g650"><path
             id="path652"
             style="fill:none;stroke:#000000;stroke-width:4.25199986;stroke-linecap:butt;stroke-linejoin:miter;stroke-miterlimit:10;stroke-dasharray:none;stroke-opacity:1"
             d="M 556.1645,-406.77678 V -520.16406" /></g><g
           id="g654"><path
             id="path656"
             style="fill:none;stroke:#000000;stroke-width:4.25199986;stroke-linecap:butt;stroke-linejoin:miter;stroke-miterlimit:10;stroke-dasharray:none;stroke-opacity:1"
             d="M 741.55267,-406.77678 V -520.16406" /></g><g
           id="g658"><path
             id="path660"
             style="fill:none;stroke:#000000;stroke-width:4.25199986;stroke-linecap:butt;stroke-linejoin:miter;stroke-miterlimit:10;stroke-dasharray:none;stroke-opacity:1"
             d="M 0,-592.16495 V -705.55223" /></g><g
           id="g662"><path
             id="path664"
             style="fill:none;stroke:#000000;stroke-width:4.25199986;stroke-linecap:butt;stroke-linejoin:miter;stroke-miterlimit:10;stroke-dasharray:none;stroke-opacity:1"
             d="M 185.38817,-592.16495 V -705.55223" /></g><g
           id="g666"><path
             id="path668"
             style="fill:none;stroke:#000000;stroke-width:4.25199986;stroke-linecap:butt;stroke-linejoin:miter;stroke-miterlimit:10;stroke-dasharray:none;stroke-opacity:1"
             d="M 370.77634,-592.16495 V -705.55223" /></g><g
           id="g670"><path
             id="path672"
             style="fill:none;stroke:#000000;stroke-width:4.25199986;stroke-linecap:butt;stroke-linejoin:miter;stroke-miterlimit:10;stroke-dasharray:none;stroke-opacity:1"
             d="M 556.1645,-592.16495 V -705.55223" /></g><g
           id="g674"><path
             id="path676"
             style="fill:none;stroke:#000000;stroke-width:4.25199986;stroke-linecap:butt;stroke-linejoin:miter;stroke-miterlimit:10;stroke-dasharray:none;stroke-opacity:1"
             d="M 741.55267,-592.16495 V -705.55223" /></g></g></g></g></svg>