<?xml version="1.0" encoding="UTF-8" standalone="no"?>
<svg
   xmlns:dc="http://purl.org/dc/elements/1.1/"
   xmlns:cc="http://creativecommons.org/ns#"
   xmlns:rdf="http://www.w3.org/1999/02/22-rdf-syntax-ns#"
   xmlns:svg="http://www.w3.org/2000/svg"
   xmlns="http://www.w3.org/2000/svg"
   viewBox="0 0 1033.9 97.333336"
   height="97.333336"
   width="1033.9"
   xml:space="preserve"
   id="svg2"
   version="1.1"><metadata
     id="metadata8"><rdf:RDF><cc:Work
         rdf:about=""><dc:format>image/svg+xml</dc:format><dc:type
           rdf:resource="http://purl.org/dc/dcmitype/StillImage" /></cc:Work></rdf:RDF></metadata><defs
     id="defs6" /><g
     transform="matrix(1.3333333,0,0,-1.3333333,48.666665,48.666668)"
     id="g10"><g
       id="g12"><g
         id="g14" /><g
         id="g16"><g
           id="g18"><g
             id="g20"><path
               id="path22"
               style="fill:#008080;fill-opacity:1;fill-rule:nonzero;stroke:#008080;stroke-width:1.13384998;stroke-linecap:butt;stroke-linejoin:miter;stroke-miterlimit:10;stroke-dasharray:none;stroke-opacity:1"
               d="m 31.4484,35.4335 h -62.8968 c -2.20094,0 -3.9851,-1.78416 -3.9851,-3.9851 v -62.8968 c 0,-2.20094 1.78416,-3.9851 3.9851,-3.9851 h 62.8968 c 2.20094,0 3.9851,1.78416 3.9851,3.9851 v 62.8968 c 0,2.20094 -1.78416,3.9851 -3.9851,3.9851 z" /></g><g
             transform="translate(-29.577,-17.089)"
             id="g24"><g
               id="g26"><g
                 transform="translate(-6.923,-19.411)"
                 id="g28"><text
                   id="text32"
                   style="font-variant:normal;font-weight:normal;font-size:49.8132019px;font-family:CMBX12;-inkscape-font-specification:CMBX12;writing-mode:lr-tb;fill:#ffffff;fill-opacity:1;fill-rule:nonzero;stroke:none"
                   transform="matrix(1,0,0,-1,6.923,19.411)"><tspan
                     id="tspan30"
                     y="0"
                     x="0 31.133249">S1</tspan></text>
<g
                   transform="translate(6.923,19.411)"
                   id="g34" /></g></g><g
               transform="translate(29.577,17.089)"
               id="g36" /></g></g><g
           id="g38"><g
             id="g40"><path
               id="path42"
               style="fill:#008080;fill-opacity:1;fill-rule:nonzero;stroke:#008080;stroke-width:1.13384998;stroke-linecap:butt;stroke-linejoin:miter;stroke-miterlimit:10;stroke-dasharray:none;stroke-opacity:1"
               d="M 131.7961,35.4335 H 68.89928 c -2.20095,0 -3.98511,-1.78416 -3.98511,-3.9851 v -62.8968 c 0,-2.20094 1.78416,-3.9851 3.98511,-3.9851 h 62.89682 c 2.20094,0 3.9851,1.78416 3.9851,3.9851 v 62.8968 c 0,2.20094 -1.78416,3.9851 -3.9851,3.9851 z" /></g><g
             transform="translate(70.77,-17.089)"
             id="g44"><g
               id="g46"><g
                 transform="translate(-107.27,-19.411)"
                 id="g48"><text
                   id="text52"
                   style="font-variant:normal;font-weight:normal;font-size:49.8132019px;font-family:CMBX12;-inkscape-font-specification:CMBX12;writing-mode:lr-tb;fill:#ffffff;fill-opacity:1;fill-rule:nonzero;stroke:none"
                   transform="matrix(1,0,0,-1,107.27,19.411)"><tspan
                     id="tspan50"
                     y="0"
                     x="0 31.133249">S2</tspan></text>
<g
                   transform="translate(107.27,19.411)"
                   id="g54" /></g></g><g
               transform="translate(-70.77,17.089)"
               id="g56" /></g></g><g
           id="g58"><path
             id="path60"
             style="fill:none;stroke:#000000;stroke-width:2.83466005;stroke-linecap:butt;stroke-linejoin:miter;stroke-miterlimit:10;stroke-dasharray:none;stroke-opacity:1"
             d="m 36.00044,0 h 28.3468" /></g><g
           id="g62"><g
             id="g64"><path
               id="path66"
               style="fill:#008080;fill-opacity:1;fill-rule:nonzero;stroke:#008080;stroke-width:1.13384998;stroke-linecap:butt;stroke-linejoin:miter;stroke-miterlimit:10;stroke-dasharray:none;stroke-opacity:1"
               d="m 232.1438,35.4335 h -62.89682 c -2.20094,0 -3.98511,-1.78416 -3.98511,-3.9851 v -62.8968 c 0,-2.20094 1.78417,-3.9851 3.98511,-3.9851 h 62.89682 c 2.20094,0 3.9851,1.78416 3.9851,3.9851 v 62.8968 c 0,2.20094 -1.78416,3.9851 -3.9851,3.9851 z" /></g><g
             transform="translate(171.116,-17.089)"
             id="g68"><g
               id="g70"><g
                 transform="translate(-207.616,-19.411)"
                 id="g72"><text
                   id="text76"
                   style="font-variant:normal;font-weight:normal;font-size:49.8132019px;font-family:CMBX12;-inkscape-font-specification:CMBX12;writing-mode:lr-tb;fill:#ffffff;fill-opacity:1;fill-rule:nonzero;stroke:none"
                   transform="matrix(1,0,0,-1,207.616,19.411)"><tspan
                     id="tspan74"
                     y="0"
                     x="0 31.133249">S3</tspan></text>
<g
                   transform="translate(207.616,19.411)"
                   id="g78" /></g></g><g
               transform="translate(-171.116,17.089)"
               id="g80" /></g></g><g
           id="g82"><path
             id="path84"
             style="fill:none;stroke:#000000;stroke-width:2.83466005;stroke-linecap:butt;stroke-linejoin:miter;stroke-miterlimit:10;stroke-dasharray:none;stroke-opacity:1"
             d="m 136.34813,0 h 28.34682" /></g><g
           id="g86"><g
             id="g88"><path
               id="path90"
               style="fill:#008080;fill-opacity:1;fill-rule:nonzero;stroke:#008080;stroke-width:1.13384998;stroke-linecap:butt;stroke-linejoin:miter;stroke-miterlimit:10;stroke-dasharray:none;stroke-opacity:1"
               d="m 332.49149,35.4335 h -62.89681 c -2.20094,0 -3.98511,-1.78416 -3.98511,-3.9851 v -62.8968 c 0,-2.20094 1.78417,-3.9851 3.98511,-3.9851 h 62.89681 c 2.20094,0 3.98511,1.78416 3.98511,3.9851 v 62.8968 c 0,2.20094 -1.78417,3.9851 -3.98511,3.9851 z" /></g><g
             transform="translate(271.463,-17.089)"
             id="g92"><g
               id="g94"><g
                 transform="translate(-307.963,-19.411)"
                 id="g96"><text
                   id="text100"
                   style="font-variant:normal;font-weight:normal;font-size:49.8132019px;font-family:CMBX12;-inkscape-font-specification:CMBX12;writing-mode:lr-tb;fill:#ffffff;fill-opacity:1;fill-rule:nonzero;stroke:none"
                   transform="matrix(1,0,0,-1,307.963,19.411)"><tspan
                     id="tspan98"
                     y="0"
                     x="0 31.133249">S4</tspan></text>
<g
                   transform="translate(307.963,19.411)"
                   id="g102" /></g></g><g
               transform="translate(-271.463,17.089)"
               id="g104" /></g></g><g
           id="g106"><path
             id="path108"
             style="fill:none;stroke:#000000;stroke-width:2.83466005;stroke-linecap:butt;stroke-linejoin:miter;stroke-miterlimit:10;stroke-dasharray:none;stroke-opacity:1"
             d="m 236.69583,0 h 28.3468" /></g><g
           id="g110"><g
             id="g112"><path
               id="path114"
               style="fill:#008080;fill-opacity:1;fill-rule:nonzero;stroke:#008080;stroke-width:1.13384998;stroke-linecap:butt;stroke-linejoin:miter;stroke-miterlimit:10;stroke-dasharray:none;stroke-opacity:1"
               d="m 432.83919,35.4335 h -62.89682 c -2.20095,0 -3.98511,-1.78416 -3.98511,-3.9851 v -62.8968 c 0,-2.20094 1.78416,-3.9851 3.98511,-3.9851 h 62.89682 c 2.20094,0 3.98511,1.78416 3.98511,3.9851 v 62.8968 c 0,2.20094 -1.78417,3.9851 -3.98511,3.9851 z" /></g><g
             transform="translate(371.809,-17.089)"
             id="g116"><g
               id="g118"><g
                 transform="translate(-408.309,-19.411)"
                 id="g120"><text
                   id="text124"
                   style="font-variant:normal;font-weight:normal;font-size:49.8132019px;font-family:CMBX12;-inkscape-font-specification:CMBX12;writing-mode:lr-tb;fill:#ffffff;fill-opacity:1;fill-rule:nonzero;stroke:none"
                   transform="matrix(1,0,0,-1,408.309,19.411)"><tspan
                     id="tspan122"
                     y="0"
                     x="0 31.133249">S5</tspan></text>
<g
                   transform="translate(408.309,19.411)"
                   id="g126" /></g></g><g
               transform="translate(-371.809,17.089)"
               id="g128" /></g></g><g
           id="g130"><path
             id="path132"
             style="fill:none;stroke:#000000;stroke-width:2.83466005;stroke-linecap:butt;stroke-linejoin:miter;stroke-miterlimit:10;stroke-dasharray:none;stroke-opacity:1"
             d="m 337.04353,0 h 28.34681" /></g><g
           id="g134"><g
             id="g136"><path
               id="path138"
               style="fill:#008080;fill-opacity:1;fill-rule:nonzero;stroke:#008080;stroke-width:1.13384998;stroke-linecap:butt;stroke-linejoin:miter;stroke-miterlimit:10;stroke-dasharray:none;stroke-opacity:1"
               d="m 533.18689,35.4335 h -62.89682 c -2.20094,0 -3.98511,-1.78416 -3.98511,-3.9851 v -62.8968 c 0,-2.20094 1.78417,-3.9851 3.98511,-3.9851 h 62.89682 c 2.20094,0 3.98511,1.78416 3.98511,3.9851 v 62.8968 c 0,2.20094 -1.78417,3.9851 -3.98511,3.9851 z" /></g><g
             transform="translate(472.155,-17.089)"
             id="g140"><g
               id="g142"><g
                 transform="translate(-508.655,-19.411)"
                 id="g144"><text
                   id="text148"
                   style="font-variant:normal;font-weight:normal;font-size:49.8132019px;font-family:CMBX12;-inkscape-font-specification:CMBX12;writing-mode:lr-tb;fill:#ffffff;fill-opacity:1;fill-rule:nonzero;stroke:none"
                   transform="matrix(1,0,0,-1,508.655,19.411)"><tspan
                     id="tspan146"
                     y="0"
                     x="0 31.133249">S6</tspan></text>
<g
                   transform="translate(508.655,19.411)"
                   id="g150" /></g></g><g
               transform="translate(-472.155,17.089)"
               id="g152" /></g></g><g
           id="g154"><path
             id="path156"
             style="fill:none;stroke:#000000;stroke-width:2.83466005;stroke-linecap:butt;stroke-linejoin:miter;stroke-miterlimit:10;stroke-dasharray:none;stroke-opacity:1"
             d="m 437.39122,0 h 28.34682" /></g><g
           id="g158"><g
             id="g160"><path
               id="path162"
               style="fill:#008080;fill-opacity:1;fill-rule:nonzero;stroke:#008080;stroke-width:1.13384998;stroke-linecap:butt;stroke-linejoin:miter;stroke-miterlimit:10;stroke-dasharray:none;stroke-opacity:1"
               d="m 633.53458,35.4335 h -62.89681 c -2.20094,0 -3.98511,-1.78416 -3.98511,-3.9851 v -62.8968 c 0,-2.20094 1.78417,-3.9851 3.98511,-3.9851 h 62.89681 c 2.20094,0 3.9851,1.78416 3.9851,3.9851 v 62.8968 c 0,2.20094 -1.78416,3.9851 -3.9851,3.9851 z" /></g><g
             transform="translate(572.502,-17.089)"
             id="g164"><g
               id="g166"><g
                 transform="translate(-609.002,-19.411)"
                 id="g168"><text
                   id="text172"
                   style="font-variant:normal;font-weight:normal;font-size:49.8132019px;font-family:CMBX12;-inkscape-font-specification:CMBX12;writing-mode:lr-tb;fill:#ffffff;fill-opacity:1;fill-rule:nonzero;stroke:none"
                   transform="matrix(1,0,0,-1,609.002,19.411)"><tspan
                     id="tspan170"
                     y="0"
                     x="0 31.133249">S7</tspan></text>
<g
                   transform="translate(609.002,19.411)"
                   id="g174" /></g></g><g
               transform="translate(-572.502,17.089)"
               id="g176" /></g></g><g
           id="g178"><path
             id="path180"
             style="fill:none;stroke:#000000;stroke-width:2.83466005;stroke-linecap:butt;stroke-linejoin:miter;stroke-miterlimit:10;stroke-dasharray:none;stroke-opacity:1"
             d="m 537.73892,0 h 28.3468" /></g><g
           id="g182"><g
             id="g184"><path
               id="path186"
               style="fill:#008080;fill-opacity:1;fill-rule:nonzero;stroke:#008080;stroke-width:1.13384998;stroke-linecap:butt;stroke-linejoin:miter;stroke-miterlimit:10;stroke-dasharray:none;stroke-opacity:1"
               d="m 733.88228,35.4335 h -62.89682 c -2.20094,0 -3.98511,-1.78416 -3.98511,-3.9851 v -62.8968 c 0,-2.20094 1.78417,-3.9851 3.98511,-3.9851 h 62.89682 c 2.20094,0 3.98511,1.78416 3.98511,3.9851 v 62.8968 c 0,2.20094 -1.78417,3.9851 -3.98511,3.9851 z" /></g><g
             transform="translate(672.848,-17.089)"
             id="g188"><g
               id="g190"><g
                 transform="translate(-709.348,-19.411)"
                 id="g192"><text
                   id="text196"
                   style="font-variant:normal;font-weight:normal;font-size:49.8132019px;font-family:CMBX12;-inkscape-font-specification:CMBX12;writing-mode:lr-tb;fill:#ffffff;fill-opacity:1;fill-rule:nonzero;stroke:none"
                   transform="matrix(1,0,0,-1,709.348,19.411)"><tspan
                     id="tspan194"
                     y="0"
                     x="0 31.133249">S8</tspan></text>
<g
                   transform="translate(709.348,19.411)"
                   id="g198" /></g></g><g
               transform="translate(-672.848,17.089)"
               id="g200" /></g></g><g
           id="g202"><path
             id="path204"
             style="fill:none;stroke:#000000;stroke-width:2.83466005;stroke-linecap:butt;stroke-linejoin:miter;stroke-miterlimit:10;stroke-dasharray:none;stroke-opacity:1"
             d="m 638.08662,0 h 28.34681" /></g></g></g></g></svg>