<?xml version="1.0" encoding="UTF-8" standalone="no"?>
<svg
   xmlns:dc="http://purl.org/dc/elements/1.1/"
   xmlns:cc="http://creativecommons.org/ns#"
   xmlns:rdf="http://www.w3.org/1999/02/22-rdf-syntax-ns#"
   xmlns:svg="http://www.w3.org/2000/svg"
   xmlns="http://www.w3.org/2000/svg"
   viewBox="0 0 672.46533 435.38666"
   height="435.38666"
   width="672.46533"
   xml:space="preserve"
   id="svg2"
   version="1.1"><metadata
     id="metadata8"><rdf:RDF><cc:Work
         rdf:about=""><dc:format>image/svg+xml</dc:format><dc:type
           rdf:resource="http://purl.org/dc/dcmitype/StillImage" /></cc:Work></rdf:RDF></metadata><defs
     id="defs6" /><g
     transform="matrix(1.3333333,0,0,-1.3333333,336.23199,293.28401)"
     id="g10"><g
       id="g12"><g
         id="g14" /><g
         id="g16"><g
           id="g18"><g
             id="g20"><path
               id="path22"
               style="fill:#008080;fill-opacity:1;fill-rule:nonzero;stroke:#008080;stroke-width:1.13384998;stroke-linecap:butt;stroke-linejoin:miter;stroke-miterlimit:10;stroke-dasharray:none;stroke-opacity:1"
               d="m 247.12567,-34.64455 h -62.8968 c -2.20095,0 -3.98511,-1.78416 -3.98511,-3.9851 v -62.89681 c 0,-2.20094 1.78416,-3.98511 3.98511,-3.98511 h 62.8968 c 2.20094,0 3.98511,1.78417 3.98511,3.98511 v 62.89681 c 0,2.20094 -1.78417,3.9851 -3.98511,3.9851 z" /></g><g
             transform="translate(186.098,-87.166)"
             id="g24"><g
               id="g26"><g
                 transform="translate(-438.272,-19.411)"
                 id="g28"><text
                   id="text32"
                   style="font-variant:normal;font-weight:normal;font-size:49.8132019px;font-family:CMBX12;-inkscape-font-specification:CMBX12;writing-mode:lr-tb;fill:#ffffff;fill-opacity:1;fill-rule:nonzero;stroke:none"
                   transform="matrix(1,0,0,-1,438.272,19.411)"><tspan
                     id="tspan30"
                     y="0"
                     x="0 31.133249">S1</tspan></text>
<g
                   transform="translate(438.272,19.411)"
                   id="g34" /></g></g><g
               transform="translate(-186.098,87.166)"
               id="g36" /></g></g><g
           id="g38"><g
             id="g40"><path
               id="path42"
               style="fill:#008080;fill-opacity:1;fill-rule:nonzero;stroke:#008080;stroke-width:1.13384998;stroke-linecap:butt;stroke-linejoin:miter;stroke-miterlimit:10;stroke-dasharray:none;stroke-opacity:1"
               d="m 164.74277,218.89882 h -62.89682 c -2.20095,0 -3.98511,-1.78417 -3.98511,-3.98511 v -62.89682 c 0,-2.20094 1.78416,-3.98511 3.98511,-3.98511 h 62.89682 c 2.20094,0 3.9851,1.78417 3.9851,3.98511 v 62.89682 c 0,2.20094 -1.78416,3.98511 -3.9851,3.98511 z" /></g><g
             transform="translate(103.717,166.374)"
             id="g44"><g
               id="g46"><g
                 transform="translate(-355.891,-272.951)"
                 id="g48"><text
                   id="text52"
                   style="font-variant:normal;font-weight:normal;font-size:49.8132019px;font-family:CMBX12;-inkscape-font-specification:CMBX12;writing-mode:lr-tb;fill:#ffffff;fill-opacity:1;fill-rule:nonzero;stroke:none"
                   transform="matrix(1,0,0,-1,355.891,272.951)"><tspan
                     id="tspan50"
                     y="0"
                     x="0 31.133249">S2</tspan></text>
<g
                   transform="translate(355.891,272.951)"
                   id="g54" /></g></g><g
               transform="translate(-103.717,-166.374)"
               id="g56" /></g></g><g
           id="g58"><g
             id="g60"><path
               id="path62"
               style="fill:#008080;fill-opacity:1;fill-rule:nonzero;stroke:#008080;stroke-width:1.13384998;stroke-linecap:butt;stroke-linejoin:miter;stroke-miterlimit:10;stroke-dasharray:none;stroke-opacity:1"
               d="m -101.84595,218.89882 h -62.89682 c -2.20094,0 -3.9851,-1.78417 -3.9851,-3.98511 v -62.89682 c 0,-2.20094 1.78416,-3.98511 3.9851,-3.98511 h 62.89682 c 2.20095,0 3.98511,1.78417 3.98511,3.98511 v 62.89682 c 0,2.20094 -1.78416,3.98511 -3.98511,3.98511 z" /></g><g
             transform="translate(-162.869,166.374)"
             id="g64"><g
               id="g66"><g
                 transform="translate(-89.305,-272.951)"
                 id="g68"><text
                   id="text72"
                   style="font-variant:normal;font-weight:normal;font-size:49.8132019px;font-family:CMBX12;-inkscape-font-specification:CMBX12;writing-mode:lr-tb;fill:#ffffff;fill-opacity:1;fill-rule:nonzero;stroke:none"
                   transform="matrix(1,0,0,-1,89.305,272.951)"><tspan
                     id="tspan70"
                     y="0"
                     x="0 31.133249">S3</tspan></text>
<g
                   transform="translate(89.305,272.951)"
                   id="g74" /></g></g><g
               transform="translate(162.869,-166.374)"
               id="g76" /></g></g><g
           id="g78"><g
             id="g80"><path
               id="path82"
               style="fill:#008080;fill-opacity:1;fill-rule:nonzero;stroke:#008080;stroke-width:1.13384998;stroke-linecap:butt;stroke-linejoin:miter;stroke-miterlimit:10;stroke-dasharray:none;stroke-opacity:1"
               d="m -184.22887,-34.64455 h -62.8968 c -2.20094,0 -3.98511,-1.78416 -3.98511,-3.9851 v -62.89681 c 0,-2.20094 1.78417,-3.98511 3.98511,-3.98511 h 62.8968 c 2.20095,0 3.98511,1.78417 3.98511,3.98511 v 62.89681 c 0,2.20094 -1.78416,3.9851 -3.98511,3.9851 z" /></g><g
             transform="translate(-245.251,-87.166)"
             id="g84"><g
               id="g86"><g
                 transform="translate(-6.923,-19.411)"
                 id="g88"><text
                   id="text92"
                   style="font-variant:normal;font-weight:normal;font-size:49.8132019px;font-family:CMBX12;-inkscape-font-specification:CMBX12;writing-mode:lr-tb;fill:#ffffff;fill-opacity:1;fill-rule:nonzero;stroke:none"
                   transform="matrix(1,0,0,-1,6.923,19.411)"><tspan
                     id="tspan90"
                     y="0"
                     x="0 31.133249">S4</tspan></text>
<g
                   transform="translate(6.923,19.411)"
                   id="g94" /></g></g><g
               transform="translate(245.251,87.166)"
               id="g96" /></g></g><g
           id="g98"><path
             id="path100"
             style="fill:none;stroke:#000000;stroke-width:4.25199986;stroke-linecap:butt;stroke-linejoin:miter;stroke-miterlimit:10;stroke-dasharray:none;stroke-opacity:1"
             d="M 203.9811,-34.0776 144.96802,147.46486 M 97.29391,183.4653 H -97.29391 m -47.69663,-36.00044 -59.01308,-181.54246 m 24.32679,-36.00046 h 359.35366" /></g></g></g></g></svg>