<?xml version="1.0" encoding="UTF-8" standalone="no"?>
<svg
   xmlns:dc="http://purl.org/dc/elements/1.1/"
   xmlns:cc="http://creativecommons.org/ns#"
   xmlns:rdf="http://www.w3.org/1999/02/22-rdf-syntax-ns#"
   xmlns:svg="http://www.w3.org/2000/svg"
   xmlns="http://www.w3.org/2000/svg"
   viewBox="0 0 692.87598 613.08264"
   height="613.08264"
   width="692.87598"
   xml:space="preserve"
   id="svg2"
   version="1.1"><metadata
     id="metadata8"><rdf:RDF><cc:Work
         rdf:about=""><dc:format>image/svg+xml</dc:format><dc:type
           rdf:resource="http://purl.org/dc/dcmitype/StillImage" /></cc:Work></rdf:RDF></metadata><defs
     id="defs6" /><g
     transform="matrix(1.3333333,0,0,-1.3333333,346.43866,332.79601)"
     id="g10"><g
       id="g12"><g
         id="g14" /><g
         id="g16"><g
           id="g18"><g
             id="g20"><path
               id="path22"
               style="fill:#008080;fill-opacity:1;fill-rule:nonzero;stroke:#008080;stroke-width:1.13384998;stroke-linecap:butt;stroke-linejoin:miter;stroke-miterlimit:10;stroke-dasharray:none;stroke-opacity:1"
               d="m 177.21716,-138.2841 h -62.89682 c -2.20094,0 -3.9851,-1.78417 -3.9851,-3.98511 v -62.89682 c 0,-2.20094 1.78416,-3.98511 3.9851,-3.98511 h 62.89682 c 2.20094,0 3.98511,1.78417 3.98511,3.98511 v 62.89682 c 0,2.20094 -1.78417,3.98511 -3.98511,3.98511 z" /></g><g
             transform="translate(116.19,-190.804)"
             id="g24"><g
               id="g26"><g
                 transform="translate(-376.019,-19.411)"
                 id="g28"><text
                   id="text32"
                   style="font-variant:normal;font-weight:normal;font-size:49.8132019px;font-family:CMBX12;-inkscape-font-specification:CMBX12;writing-mode:lr-tb;fill:#ffffff;fill-opacity:1;fill-rule:nonzero;stroke:none"
                   transform="matrix(1,0,0,-1,376.019,19.411)"><tspan
                     id="tspan30"
                     y="0"
                     x="0 31.133249">S1</tspan></text>
<g
                   transform="translate(376.019,19.411)"
                   id="g34" /></g></g><g
               transform="translate(-116.19,190.804)"
               id="g36" /></g></g><g
           id="g38"><g
             id="g40"><path
               id="path42"
               style="fill:#008080;fill-opacity:1;fill-rule:nonzero;stroke:#008080;stroke-width:1.13384998;stroke-linecap:butt;stroke-linejoin:miter;stroke-miterlimit:10;stroke-dasharray:none;stroke-opacity:1"
               d="m 254.77988,-3.94472 h -62.89682 c -2.20095,0 -3.98511,-1.78416 -3.98511,-3.9851 v -62.89682 c 0,-2.20095 1.78416,-3.98511 3.98511,-3.98511 h 62.89682 c 2.20094,0 3.9851,1.78416 3.9851,3.98511 v 62.89682 c 0,2.20094 -1.78416,3.9851 -3.9851,3.9851 z" /></g><g
             transform="translate(193.752,-56.466)"
             id="g44"><g
               id="g46"><g
                 transform="translate(-453.581,-153.749)"
                 id="g48"><text
                   id="text52"
                   style="font-variant:normal;font-weight:normal;font-size:49.8132019px;font-family:CMBX12;-inkscape-font-specification:CMBX12;writing-mode:lr-tb;fill:#ffffff;fill-opacity:1;fill-rule:nonzero;stroke:none"
                   transform="matrix(1,0,0,-1,453.581,153.749)"><tspan
                     id="tspan50"
                     y="0"
                     x="0 31.133249">S2</tspan></text>
<g
                   transform="translate(453.581,153.749)"
                   id="g54" /></g></g><g
               transform="translate(-193.752,56.466)"
               id="g56" /></g></g><g
           id="g58"><g
             id="g60"><path
               id="path62"
               style="fill:#008080;fill-opacity:1;fill-rule:nonzero;stroke:#008080;stroke-width:1.13384998;stroke-linecap:butt;stroke-linejoin:miter;stroke-miterlimit:10;stroke-dasharray:none;stroke-opacity:1"
               d="m 227.8414,148.82076 h -62.8968 c -2.20095,0 -3.98511,-1.78418 -3.98511,-3.98511 V 81.93883 c 0,-2.20095 1.78416,-3.98511 3.98511,-3.98511 h 62.8968 c 2.20094,0 3.9851,1.78416 3.9851,3.98511 v 62.89682 c 0,2.20093 -1.78416,3.98511 -3.9851,3.98511 z" /></g><g
             transform="translate(166.814,96.297)"
             id="g64"><g
               id="g66"><g
                 transform="translate(-426.643,-306.512)"
                 id="g68"><text
                   id="text72"
                   style="font-variant:normal;font-weight:normal;font-size:49.8132019px;font-family:CMBX12;-inkscape-font-specification:CMBX12;writing-mode:lr-tb;fill:#ffffff;fill-opacity:1;fill-rule:nonzero;stroke:none"
                   transform="matrix(1,0,0,-1,426.643,306.512)"><tspan
                     id="tspan70"
                     y="0"
                     x="0 31.133249">S3</tspan></text>
<g
                   transform="translate(426.643,306.512)"
                   id="g74" /></g></g><g
               transform="translate(-166.814,-96.297)"
               id="g76" /></g></g><g
           id="g78"><g
             id="g80"><path
               id="path82"
               style="fill:#008080;fill-opacity:1;fill-rule:nonzero;stroke:#008080;stroke-width:1.13384998;stroke-linecap:butt;stroke-linejoin:miter;stroke-miterlimit:10;stroke-dasharray:none;stroke-opacity:1"
               d="M 109.0111,248.53287 H 46.11429 c -2.20094,0 -3.98511,-1.78417 -3.98511,-3.98511 v -62.89682 c 0,-2.20094 1.78417,-3.98511 3.98511,-3.98511 h 62.89681 c 2.20094,0 3.9851,1.78417 3.9851,3.98511 v 62.89682 c 0,2.20094 -1.78416,3.98511 -3.9851,3.98511 z" /></g><g
             transform="translate(47.985,196.008)"
             id="g84"><g
               id="g86"><g
                 transform="translate(-307.814,-406.223)"
                 id="g88"><text
                   id="text92"
                   style="font-variant:normal;font-weight:normal;font-size:49.8132019px;font-family:CMBX12;-inkscape-font-specification:CMBX12;writing-mode:lr-tb;fill:#ffffff;fill-opacity:1;fill-rule:nonzero;stroke:none"
                   transform="matrix(1,0,0,-1,307.814,406.223)"><tspan
                     id="tspan90"
                     y="0"
                     x="0 31.133249">S4</tspan></text>
<g
                   transform="translate(307.814,406.223)"
                   id="g94" /></g></g><g
               transform="translate(-47.985,-196.008)"
               id="g96" /></g></g><g
           id="g98"><g
             id="g100"><path
               id="path102"
               style="fill:#008080;fill-opacity:1;fill-rule:nonzero;stroke:#008080;stroke-width:1.13384998;stroke-linecap:butt;stroke-linejoin:miter;stroke-miterlimit:10;stroke-dasharray:none;stroke-opacity:1"
               d="m -46.11429,248.53287 h -62.89681 c -2.20094,0 -3.9851,-1.78417 -3.9851,-3.98511 v -62.89682 c 0,-2.20094 1.78416,-3.98511 3.9851,-3.98511 h 62.89681 c 2.20094,0 3.98511,1.78417 3.98511,3.98511 v 62.89682 c 0,2.20094 -1.78417,3.98511 -3.98511,3.98511 z" /></g><g
             transform="translate(-107.139,196.008)"
             id="g104"><g
               id="g106"><g
                 transform="translate(-152.69,-406.223)"
                 id="g108"><text
                   id="text112"
                   style="font-variant:normal;font-weight:normal;font-size:49.8132019px;font-family:CMBX12;-inkscape-font-specification:CMBX12;writing-mode:lr-tb;fill:#ffffff;fill-opacity:1;fill-rule:nonzero;stroke:none"
                   transform="matrix(1,0,0,-1,152.69,406.223)"><tspan
                     id="tspan110"
                     y="0"
                     x="0 31.133249">S5</tspan></text>
<g
                   transform="translate(152.69,406.223)"
                   id="g114" /></g></g><g
               transform="translate(107.139,-196.008)"
               id="g116" /></g></g><g
           id="g118"><g
             id="g120"><path
               id="path122"
               style="fill:#008080;fill-opacity:1;fill-rule:nonzero;stroke:#008080;stroke-width:1.13384998;stroke-linecap:butt;stroke-linejoin:miter;stroke-miterlimit:10;stroke-dasharray:none;stroke-opacity:1"
               d="m -164.9446,148.82076 h -62.8968 c -2.20094,0 -3.9851,-1.78418 -3.9851,-3.98511 V 81.93883 c 0,-2.20095 1.78416,-3.98511 3.9851,-3.98511 h 62.8968 c 2.20095,0 3.98511,1.78416 3.98511,3.98511 v 62.89682 c 0,2.20093 -1.78416,3.98511 -3.98511,3.98511 z" /></g><g
             transform="translate(-225.967,96.297)"
             id="g124"><g
               id="g126"><g
                 transform="translate(-33.862,-306.512)"
                 id="g128"><text
                   id="text132"
                   style="font-variant:normal;font-weight:normal;font-size:49.8132019px;font-family:CMBX12;-inkscape-font-specification:CMBX12;writing-mode:lr-tb;fill:#ffffff;fill-opacity:1;fill-rule:nonzero;stroke:none"
                   transform="matrix(1,0,0,-1,33.862,306.512)"><tspan
                     id="tspan130"
                     y="0"
                     x="0 31.133249">S6</tspan></text>
<g
                   transform="translate(33.862,306.512)"
                   id="g134" /></g></g><g
               transform="translate(225.967,-96.297)"
               id="g136" /></g></g><g
           id="g138"><g
             id="g140"><path
               id="path142"
               style="fill:#008080;fill-opacity:1;fill-rule:nonzero;stroke:#008080;stroke-width:1.13384998;stroke-linecap:butt;stroke-linejoin:miter;stroke-miterlimit:10;stroke-dasharray:none;stroke-opacity:1"
               d="m -191.88306,-3.94472 h -62.89682 c -2.20094,0 -3.9851,-1.78416 -3.9851,-3.9851 v -62.89682 c 0,-2.20095 1.78416,-3.98511 3.9851,-3.98511 h 62.89682 c 2.20095,0 3.98511,1.78416 3.98511,3.98511 v 62.89682 c 0,2.20094 -1.78416,3.9851 -3.98511,3.9851 z" /></g><g
             transform="translate(-252.906,-56.466)"
             id="g144"><g
               id="g146"><g
                 transform="translate(-6.923,-153.749)"
                 id="g148"><text
                   id="text152"
                   style="font-variant:normal;font-weight:normal;font-size:49.8132019px;font-family:CMBX12;-inkscape-font-specification:CMBX12;writing-mode:lr-tb;fill:#ffffff;fill-opacity:1;fill-rule:nonzero;stroke:none"
                   transform="matrix(1,0,0,-1,6.923,153.749)"><tspan
                     id="tspan150"
                     y="0"
                     x="0 31.133249">S7</tspan></text>
<g
                   transform="translate(6.923,153.749)"
                   id="g154" /></g></g><g
               transform="translate(252.906,56.466)"
               id="g156" /></g></g><g
           id="g158"><g
             id="g160"><path
               id="path162"
               style="fill:#008080;fill-opacity:1;fill-rule:nonzero;stroke:#008080;stroke-width:1.13384998;stroke-linecap:butt;stroke-linejoin:miter;stroke-miterlimit:10;stroke-dasharray:none;stroke-opacity:1"
               d="m -114.32034,-138.2841 h -62.89682 c -2.20094,0 -3.98511,-1.78417 -3.98511,-3.98511 v -62.89682 c 0,-2.20094 1.78417,-3.98511 3.98511,-3.98511 h 62.89682 c 2.20094,0 3.9851,1.78417 3.9851,3.98511 v 62.89682 c 0,2.20094 -1.78416,3.98511 -3.9851,3.98511 z" /></g><g
             transform="translate(-175.344,-190.804)"
             id="g164"><g
               id="g166"><g
                 transform="translate(-84.485,-19.411)"
                 id="g168"><text
                   id="text172"
                   style="font-variant:normal;font-weight:normal;font-size:49.8132019px;font-family:CMBX12;-inkscape-font-specification:CMBX12;writing-mode:lr-tb;fill:#ffffff;fill-opacity:1;fill-rule:nonzero;stroke:none"
                   transform="matrix(1,0,0,-1,84.485,19.411)"><tspan
                     id="tspan170"
                     y="0"
                     x="0 31.133249">S8</tspan></text>
<g
                   transform="translate(84.485,19.411)"
                   id="g174" /></g></g><g
               transform="translate(175.344,190.804)"
               id="g176" /></g></g><g
           id="g178"><path
             id="path180"
             style="fill:none;stroke:#000000;stroke-width:4.25199986;stroke-linecap:butt;stroke-linejoin:miter;stroke-miterlimit:10;stroke-dasharray:none;stroke-opacity:1"
             d="m 166.52438,-137.71718 36.02289,62.3385 M 216.9835,-3.37779 202.73492,77.3868 m -42.34237,66.20935 -46.82941,39.32009 m -72.0009,30.18311 h -83.12448 m -72.0009,-30.20892 -46.82941,-39.3201 M -202.74097,77.3868 -216.98953,-3.37779 m 14.41369,-72.00089 36.02289,-62.3385 m 56.78464,-36.00044 h 219.53662" /></g></g></g></g></svg>