<?xml version="1.0" encoding="UTF-8" standalone="no"?>
<svg
   xmlns:dc="http://purl.org/dc/elements/1.1/"
   xmlns:cc="http://creativecommons.org/ns#"
   xmlns:rdf="http://www.w3.org/1999/02/22-rdf-syntax-ns#"
   xmlns:svg="http://www.w3.org/2000/svg"
   xmlns="http://www.w3.org/2000/svg"
   viewBox="0 0 611.672 603.23065"
   height="603.23065"
   width="611.672"
   xml:space="preserve"
   id="svg2"
   version="1.1"><metadata
     id="metadata8"><rdf:RDF><cc:Work
         rdf:about=""><dc:format>image/svg+xml</dc:format><dc:type
           rdf:resource="http://purl.org/dc/dcmitype/StillImage" /></cc:Work></rdf:RDF></metadata><defs
     id="defs6" /><g
     transform="matrix(1.3333333,0,0,-1.3333333,304.21866,290.36001)"
     id="g10"><g
       id="g12"><g
         id="g14" /><g
         id="g16"><g
           id="g18"><g
             id="g20"><path
               id="path22"
               style="fill:#008080;fill-opacity:1;fill-rule:nonzero;stroke:#008080;stroke-width:1.13384998;stroke-linecap:butt;stroke-linejoin:miter;stroke-miterlimit:10;stroke-dasharray:none;stroke-opacity:1"
               d="m 31.4484,35.4335 h -62.8968 c -2.20094,0 -3.9851,-1.78416 -3.9851,-3.9851 v -62.8968 c 0,-2.20094 1.78416,-3.9851 3.9851,-3.9851 h 62.8968 c 2.20094,0 3.9851,1.78416 3.9851,3.9851 v 62.8968 c 0,2.20094 -1.78416,3.9851 -3.9851,3.9851 z" /></g><g
             transform="translate(-29.576,-17.089)"
             id="g24"><g
               id="g26"><g
                 transform="translate(-198.588,-217.564)"
                 id="g28"><text
                   id="text32"
                   style="font-variant:normal;font-weight:normal;font-size:49.8132019px;font-family:CMBX12;-inkscape-font-specification:CMBX12;writing-mode:lr-tb;fill:#ffffff;fill-opacity:1;fill-rule:nonzero;stroke:none"
                   transform="matrix(1,0,0,-1,198.588,217.564)"><tspan
                     id="tspan30"
                     y="0"
                     x="0 31.133249">S1</tspan></text>
<g
                   transform="translate(198.588,217.564)"
                   id="g34" /></g></g><g
               transform="translate(29.576,17.089)"
               id="g36" /></g></g><g
           id="g38"><path
             id="path40"
             style="fill:none;stroke:#002040;stroke-width:4.25199986;stroke-linecap:butt;stroke-linejoin:miter;stroke-miterlimit:10;stroke-dasharray:none;stroke-opacity:1"
             d="m 36.00044,7.64272 158.09145,33.6136" /><g
             id="g42"><g
               id="g44"><path
                 id="path46"
                 style="fill:#008080;fill-opacity:1;fill-rule:nonzero;stroke:#008080;stroke-width:1.13384998;stroke-linecap:butt;stroke-linejoin:miter;stroke-miterlimit:10;stroke-dasharray:none;stroke-opacity:1"
                 d="m 225.5403,76.68983 h -62.89682 c -2.20094,0 -3.98511,-1.78416 -3.98511,-3.9851 V 9.8079 c 0,-2.20094 1.78417,-3.9851 3.98511,-3.9851 h 62.89682 c 2.20094,0 3.9851,1.78416 3.9851,3.9851 v 62.89683 c 0,2.20094 -1.78416,3.9851 -3.9851,3.9851 z" /></g><g
               transform="translate(164.513,24.167)"
               id="g48"><g
                 id="g50"><g
                   transform="translate(-392.677,-258.82)"
                   id="g52"><text
                     id="text56"
                     style="font-variant:normal;font-weight:normal;font-size:49.8132019px;font-family:CMBX12;-inkscape-font-specification:CMBX12;writing-mode:lr-tb;fill:#ffffff;fill-opacity:1;fill-rule:nonzero;stroke:none"
                     transform="matrix(1,0,0,-1,392.677,258.82)"><tspan
                       id="tspan54"
                       y="0"
                       x="0 31.133249">S2</tspan></text>
<g
                     transform="translate(392.677,258.82)"
                     id="g58" /></g></g><g
                 transform="translate(-164.513,-24.167)"
                 id="g60" /></g></g></g><g
           id="g62"><path
             id="path64"
             style="fill:none;stroke:#002040;stroke-width:4.25199986;stroke-linecap:butt;stroke-linejoin:miter;stroke-miterlimit:10;stroke-dasharray:none;stroke-opacity:1"
             d="M 18.32816,36.00044 90.08511,176.80032" /><g
             id="g66"><g
               id="g68"><path
                 id="path70"
                 style="fill:#008080;fill-opacity:1;fill-rule:nonzero;stroke:#008080;stroke-width:1.13384998;stroke-linecap:butt;stroke-linejoin:miter;stroke-miterlimit:10;stroke-dasharray:none;stroke-opacity:1"
                 d="M 121.53352,212.23384 H 58.6367 c -2.20094,0 -3.9851,-1.78416 -3.9851,-3.98511 v -62.89682 c 0,-2.20094 1.78416,-3.98511 3.9851,-3.98511 h 62.89682 c 2.20093,0 3.98511,1.78417 3.98511,3.98511 v 62.89682 c 0,2.20095 -1.78418,3.98511 -3.98511,3.98511 z" /></g><g
               transform="translate(60.508,159.709)"
               id="g72"><g
                 id="g74"><g
                   transform="translate(-288.672,-394.362)"
                   id="g76"><text
                     id="text80"
                     style="font-variant:normal;font-weight:normal;font-size:49.8132019px;font-family:CMBX12;-inkscape-font-specification:CMBX12;writing-mode:lr-tb;fill:#ffffff;fill-opacity:1;fill-rule:nonzero;stroke:none"
                     transform="matrix(1,0,0,-1,288.672,394.362)"><tspan
                       id="tspan78"
                       y="0"
                       x="0 31.133249">S3</tspan></text>
<g
                     transform="translate(288.672,394.362)"
                     id="g82" /></g></g><g
                 transform="translate(-60.508,-159.709)"
                 id="g84" /></g></g></g><g
           id="g86"><path
             id="path88"
             style="fill:none;stroke:#002040;stroke-width:4.25199986;stroke-linecap:butt;stroke-linejoin:miter;stroke-miterlimit:10;stroke-dasharray:none;stroke-opacity:1"
             d="m -16.0199,36.00044 -64.68821,145.2719" /><g
             id="g90"><g
               id="g92"><path
                 id="path94"
                 style="fill:#008080;fill-opacity:1;fill-rule:nonzero;stroke:#008080;stroke-width:1.13384998;stroke-linecap:butt;stroke-linejoin:miter;stroke-miterlimit:10;stroke-dasharray:none;stroke-opacity:1"
                 d="m -49.2597,216.70586 h -62.89682 c -2.20095,0 -3.98511,-1.78417 -3.98511,-3.98511 v -62.89682 c 0,-2.20094 1.78416,-3.98511 3.98511,-3.98511 h 62.89682 c 2.20094,0 3.9851,1.78417 3.9851,3.98511 v 62.89682 c 0,2.20094 -1.78416,3.98511 -3.9851,3.98511 z" /></g><g
               transform="translate(-110.284,164.181)"
               id="g96"><g
                 id="g98"><g
                   transform="translate(-117.88,-398.834)"
                   id="g100"><text
                     id="text104"
                     style="font-variant:normal;font-weight:normal;font-size:49.8132019px;font-family:CMBX12;-inkscape-font-specification:CMBX12;writing-mode:lr-tb;fill:#ffffff;fill-opacity:1;fill-rule:nonzero;stroke:none"
                     transform="matrix(1,0,0,-1,117.88,398.834)"><tspan
                       id="tspan102"
                       y="0"
                       x="0 31.133249">S4</tspan></text>
<g
                     transform="translate(117.88,398.834)"
                     id="g106" /></g></g><g
                 transform="translate(110.284,-164.181)"
                 id="g108" /></g></g></g><g
           id="g110"><path
             id="path112"
             style="fill:none;stroke:#002040;stroke-width:4.25199986;stroke-linecap:butt;stroke-linejoin:miter;stroke-miterlimit:10;stroke-dasharray:none;stroke-opacity:1"
             d="M -36.00044,9.62743 -191.66666,51.35696" /><g
             id="g114"><g
               id="g116"><path
                 id="path118"
                 style="fill:#008080;fill-opacity:1;fill-rule:nonzero;stroke:#008080;stroke-width:1.13384998;stroke-linecap:butt;stroke-linejoin:miter;stroke-miterlimit:10;stroke-dasharray:none;stroke-opacity:1"
                 d="m -160.21825,86.79047 h -62.89682 c -2.20094,0 -3.9851,-1.78417 -3.9851,-3.98511 V 19.90855 c 0,-2.20094 1.78416,-3.9851 3.9851,-3.9851 h 62.89682 c 2.20095,0 3.98511,1.78416 3.98511,3.9851 v 62.89681 c 0,2.20094 -1.78416,3.98511 -3.98511,3.98511 z" /></g><g
               transform="translate(-221.241,34.267)"
               id="g120"><g
                 id="g122"><g
                   transform="translate(-6.923,-268.92)"
                   id="g124"><text
                     id="text128"
                     style="font-variant:normal;font-weight:normal;font-size:49.8132019px;font-family:CMBX12;-inkscape-font-specification:CMBX12;writing-mode:lr-tb;fill:#ffffff;fill-opacity:1;fill-rule:nonzero;stroke:none"
                     transform="matrix(1,0,0,-1,6.923,268.92)"><tspan
                       id="tspan126"
                       y="0"
                       x="0 31.133249">S5</tspan></text>
<g
                     transform="translate(6.923,268.92)"
                     id="g130" /></g></g><g
                 transform="translate(221.241,-34.267)"
                 id="g132" /></g></g></g><g
           id="g134"><path
             id="path136"
             style="fill:none;stroke:#002040;stroke-width:4.25199986;stroke-linecap:butt;stroke-linejoin:miter;stroke-miterlimit:10;stroke-dasharray:none;stroke-opacity:1"
             d="m -36.00044,-26.10876 -124.5317,-90.52379" /><g
             id="g138"><g
               id="g140"><path
                 id="path142"
                 style="fill:#008080;fill-opacity:1;fill-rule:nonzero;stroke:#008080;stroke-width:1.13384998;stroke-linecap:butt;stroke-linejoin:miter;stroke-miterlimit:10;stroke-dasharray:none;stroke-opacity:1"
                 d="m -129.08372,-81.19904 h -62.89683 c -2.20094,0 -3.9851,-1.78416 -3.9851,-3.9851 v -62.89682 c 0,-2.20094 1.78416,-3.98511 3.9851,-3.98511 h 62.89683 c 2.20094,0 3.9851,1.78417 3.9851,3.98511 v 62.89682 c 0,2.20094 -1.78416,3.9851 -3.9851,3.9851 z" /></g><g
               transform="translate(-190.107,-133.72)"
               id="g144"><g
                 id="g146"><g
                   transform="translate(-38.057,-100.933)"
                   id="g148"><text
                     id="text152"
                     style="font-variant:normal;font-weight:normal;font-size:49.8132019px;font-family:CMBX12;-inkscape-font-specification:CMBX12;writing-mode:lr-tb;fill:#ffffff;fill-opacity:1;fill-rule:nonzero;stroke:none"
                     transform="matrix(1,0,0,-1,38.057,100.933)"><tspan
                       id="tspan150"
                       y="0"
                       x="0 31.133249">S6</tspan></text>
<g
                     transform="translate(38.057,100.933)"
                     id="g154" /></g></g><g
                 transform="translate(190.107,133.72)"
                 id="g156" /></g></g></g><g
           id="g158"><path
             id="path160"
             style="fill:none;stroke:#002040;stroke-width:4.25199986;stroke-linecap:butt;stroke-linejoin:miter;stroke-miterlimit:10;stroke-dasharray:none;stroke-opacity:1"
             d="m -1.8836,-36.00044 -8.50162,-162.15471" /><g
             id="g162"><g
               id="g164"><path
                 id="path166"
                 style="fill:#008080;fill-opacity:1;fill-rule:nonzero;stroke:#008080;stroke-width:1.13384998;stroke-linecap:butt;stroke-linejoin:miter;stroke-miterlimit:10;stroke-dasharray:none;stroke-opacity:1"
                 d="m 21.06317,-162.72163 h -62.8968 c -2.20095,0 -3.98511,-1.78417 -3.98511,-3.98511 v -62.89682 c 0,-2.20094 1.78416,-3.98511 3.98511,-3.98511 h 62.8968 c 2.20094,0 3.98511,1.78417 3.98511,3.98511 v 62.89682 c 0,2.20094 -1.78417,3.98511 -3.98511,3.98511 z" /></g><g
               transform="translate(-39.962,-215.242)"
               id="g168"><g
                 id="g170"><g
                   transform="translate(-188.202,-19.411)"
                   id="g172"><text
                     id="text176"
                     style="font-variant:normal;font-weight:normal;font-size:49.8132019px;font-family:CMBX12;-inkscape-font-specification:CMBX12;writing-mode:lr-tb;fill:#ffffff;fill-opacity:1;fill-rule:nonzero;stroke:none"
                     transform="matrix(1,0,0,-1,188.202,19.411)"><tspan
                       id="tspan174"
                       y="0"
                       x="0 31.133249">S7</tspan></text>
<g
                     transform="translate(188.202,19.411)"
                     id="g178" /></g></g><g
                 transform="translate(39.962,215.242)"
                 id="g180" /></g></g></g><g
           id="g182"><path
             id="path184"
             style="fill:none;stroke:#002040;stroke-width:4.25199986;stroke-linecap:butt;stroke-linejoin:miter;stroke-miterlimit:10;stroke-dasharray:none;stroke-opacity:1"
             d="m 36.00044,-32.35786 111.4578,-100.41571" /><g
             id="g186"><g
               id="g188"><path
                 id="path190"
                 style="fill:#008080;fill-opacity:1;fill-rule:nonzero;stroke:#008080;stroke-width:1.13384998;stroke-linecap:butt;stroke-linejoin:miter;stroke-miterlimit:10;stroke-dasharray:none;stroke-opacity:1"
                 d="m 178.90665,-97.34006 h -62.89682 c -2.20095,0 -3.98511,-1.78416 -3.98511,-3.9851 v -62.89682 c 0,-2.20095 1.78416,-3.98511 3.98511,-3.98511 h 62.89682 c 2.20094,0 3.9851,1.78416 3.9851,3.98511 v 62.89682 c 0,2.20094 -1.78416,3.9851 -3.9851,3.9851 z" /></g><g
               transform="translate(117.88,-149.861)"
               id="g192"><g
                 id="g194"><g
                   transform="translate(-346.044,-84.792)"
                   id="g196"><text
                     id="text200"
                     style="font-variant:normal;font-weight:normal;font-size:49.8132019px;font-family:CMBX12;-inkscape-font-specification:CMBX12;writing-mode:lr-tb;fill:#ffffff;fill-opacity:1;fill-rule:nonzero;stroke:none"
                     transform="matrix(1,0,0,-1,346.044,84.792)"><tspan
                       id="tspan198"
                       y="0"
                       x="0 31.133249">S8</tspan></text>
<g
                     transform="translate(346.044,84.792)"
                     id="g202" /></g></g><g
                 transform="translate(-117.88,149.861)"
                 id="g204" /></g></g></g></g></g></g></svg>