<?xml version="1.0" encoding="UTF-8" standalone="no"?>
<svg
   xmlns:dc="http://purl.org/dc/elements/1.1/"
   xmlns:cc="http://creativecommons.org/ns#"
   xmlns:rdf="http://www.w3.org/1999/02/22-rdf-syntax-ns#"
   xmlns:svg="http://www.w3.org/2000/svg"
   xmlns="http://www.w3.org/2000/svg"
   viewBox="0 0 555.57733 494.18399"
   height="494.18399"
   width="555.57733"
   xml:space="preserve"
   id="svg2"
   version="1.1"><metadata
     id="metadata8"><rdf:RDF><cc:Work
         rdf:about=""><dc:format>image/svg+xml</dc:format><dc:type
           rdf:resource="http://purl.org/dc/dcmitype/StillImage" /></cc:Work></rdf:RDF></metadata><defs
     id="defs6" /><g
     transform="matrix(1.3333333,0,0,-1.3333333,277.78933,180.95067)"
     id="g10"><g
       id="g12"><g
         id="g14" /><g
         id="g16"><g
           id="g18"><g
             id="g20"><path
               id="path22"
               style="fill:#008080;fill-opacity:1;fill-rule:nonzero;stroke:#008080;stroke-width:1.13384998;stroke-linecap:butt;stroke-linejoin:miter;stroke-miterlimit:10;stroke-dasharray:none;stroke-opacity:1"
               d="m 31.4484,35.4335 h -62.8968 c -2.20094,0 -3.9851,-1.78416 -3.9851,-3.9851 v -62.8968 c 0,-2.20094 1.78416,-3.9851 3.9851,-3.9851 h 62.8968 c 2.20094,0 3.9851,1.78416 3.9851,3.9851 v 62.8968 c 0,2.20094 -1.78416,3.9851 -3.9851,3.9851 z" /></g><g
             transform="translate(-29.577,-17.089)"
             id="g24"><g
               id="g26"><g
                 transform="translate(-178.765,-217.836)"
                 id="g28"><text
                   id="text32"
                   style="font-variant:normal;font-weight:normal;font-size:49.8132019px;font-family:CMBX12;-inkscape-font-specification:CMBX12;writing-mode:lr-tb;fill:#ffffff;fill-opacity:1;fill-rule:nonzero;stroke:none"
                   transform="matrix(1,0,0,-1,178.765,217.836)"><tspan
                     id="tspan30"
                     y="0"
                     x="0 31.133249">S1</tspan></text>
<g
                   transform="translate(178.765,217.836)"
                   id="g34" /></g></g><g
               transform="translate(29.577,17.089)"
               id="g36" /></g></g><g
           id="g38"><path
             id="path40"
             style="fill:none;stroke:#002040;stroke-width:4.25199986;stroke-linecap:butt;stroke-linejoin:miter;stroke-miterlimit:10;stroke-dasharray:none;stroke-opacity:1"
             d="M -36.00044,20.73254 -171.84387,99.21382" /><g
             id="g42"><g
               id="g44"><path
                 id="path46"
                 style="fill:#008080;fill-opacity:1;fill-rule:nonzero;stroke:#008080;stroke-width:1.13384998;stroke-linecap:butt;stroke-linejoin:miter;stroke-miterlimit:10;stroke-dasharray:none;stroke-opacity:1"
                 d="m -140.39546,134.64734 h -62.89682 c -2.20095,0 -3.98511,-1.78417 -3.98511,-3.98511 V 67.76541 c 0,-2.20094 1.78416,-3.98511 3.98511,-3.98511 h 62.89682 c 2.20094,0 3.98511,1.78417 3.98511,3.98511 v 62.89682 c 0,2.20094 -1.78417,3.98511 -3.98511,3.98511 z" /></g><g
               transform="translate(-201.419,82.124)"
               id="g48"><g
                 id="g50"><g
                   transform="translate(-6.923,-317.049)"
                   id="g52"><text
                     id="text56"
                     style="font-variant:normal;font-weight:normal;font-size:49.8132019px;font-family:CMBX12;-inkscape-font-specification:CMBX12;writing-mode:lr-tb;fill:#ffffff;fill-opacity:1;fill-rule:nonzero;stroke:none"
                     transform="matrix(1,0,0,-1,6.923,317.049)"><tspan
                       id="tspan54"
                       y="0"
                       x="0 31.133249">S2</tspan></text>
<g
                     transform="translate(6.923,317.049)"
                     id="g58" /></g></g><g
                 transform="translate(201.419,-82.124)"
                 id="g60" /></g></g></g><g
           id="g62"><path
             id="path64"
             style="fill:none;stroke:#002040;stroke-width:4.25199986;stroke-linecap:butt;stroke-linejoin:miter;stroke-miterlimit:10;stroke-dasharray:none;stroke-opacity:1"
             d="M 0,-36.00044 V -198.42766" /><g
             id="g66"><g
               id="g68"><path
                 id="path70"
                 style="fill:#008080;fill-opacity:1;fill-rule:nonzero;stroke:#008080;stroke-width:1.13384998;stroke-linecap:butt;stroke-linejoin:miter;stroke-miterlimit:10;stroke-dasharray:none;stroke-opacity:1"
                 d="m 31.4484,-162.99414 h -62.8968 c -2.20094,0 -3.9851,-1.78416 -3.9851,-3.98511 v -62.89682 c 0,-2.20094 1.78416,-3.98511 3.9851,-3.98511 h 62.8968 c 2.20094,0 3.9851,1.78417 3.9851,3.98511 v 62.89682 c 0,2.20095 -1.78416,3.98511 -3.9851,3.98511 z" /></g><g
               transform="translate(-29.577,-215.514)"
               id="g72"><g
                 id="g74"><g
                   transform="translate(-178.765,-19.411)"
                   id="g76"><text
                     id="text80"
                     style="font-variant:normal;font-weight:normal;font-size:49.8132019px;font-family:CMBX12;-inkscape-font-specification:CMBX12;writing-mode:lr-tb;fill:#ffffff;fill-opacity:1;fill-rule:nonzero;stroke:none"
                     transform="matrix(1,0,0,-1,178.765,19.411)"><tspan
                       id="tspan78"
                       y="0"
                       x="0 31.133249">S3</tspan></text>
<g
                     transform="translate(178.765,19.411)"
                     id="g82" /></g></g><g
                 transform="translate(29.577,215.514)"
                 id="g84" /></g></g></g><g
           id="g86"><path
             id="path88"
             style="fill:none;stroke:#002040;stroke-width:4.25199986;stroke-linecap:butt;stroke-linejoin:miter;stroke-miterlimit:10;stroke-dasharray:none;stroke-opacity:1"
             d="M 36.00044,20.73254 171.84387,99.21382" /><g
             id="g90"><g
               id="g92"><path
                 id="path94"
                 style="fill:#008080;fill-opacity:1;fill-rule:nonzero;stroke:#008080;stroke-width:1.13384998;stroke-linecap:butt;stroke-linejoin:miter;stroke-miterlimit:10;stroke-dasharray:none;stroke-opacity:1"
                 d="m 203.29228,134.64734 h -62.89682 c -2.20094,0 -3.98511,-1.78417 -3.98511,-3.98511 V 67.76541 c 0,-2.20094 1.78417,-3.98511 3.98511,-3.98511 h 62.89682 c 2.20095,0 3.98511,1.78417 3.98511,3.98511 v 62.89682 c 0,2.20094 -1.78416,3.98511 -3.98511,3.98511 z" /></g><g
               transform="translate(142.265,82.124)"
               id="g96"><g
                 id="g98"><g
                   transform="translate(-350.607,-317.049)"
                   id="g100"><text
                     id="text104"
                     style="font-variant:normal;font-weight:normal;font-size:49.8132019px;font-family:CMBX12;-inkscape-font-specification:CMBX12;writing-mode:lr-tb;fill:#ffffff;fill-opacity:1;fill-rule:nonzero;stroke:none"
                     transform="matrix(1,0,0,-1,350.607,317.049)"><tspan
                       id="tspan102"
                       y="0"
                       x="0 31.133249">S4</tspan></text>
<g
                     transform="translate(350.607,317.049)"
                     id="g106" /></g></g><g
                 transform="translate(-142.265,-82.124)"
                 id="g108" /></g></g></g></g></g></g></svg>